<svg version="1.1" xmlns="http://www.w3.org/2000/svg" xmlns:xlink="http://www.w3.org/1999/xlink" width="507.18918" height="315.25944" viewBox="0,0,507.18918,315.25944"><defs><radialGradient cx="188.56985" cy="146.62091" r="122.16444" gradientUnits="userSpaceOnUse" id="color-1"><stop offset="0" stop-color="#ffffff"/><stop offset="1" stop-color="#ffffff" stop-opacity="0"/></radialGradient><radialGradient cx="241.76777" cy="154.96569" r="122.16444" gradientUnits="userSpaceOnUse" id="color-2"><stop offset="0" stop-color="#ffffff"/><stop offset="1" stop-color="#ffffff" stop-opacity="0"/></radialGradient><radialGradient cx="318.9569" cy="148.70711" r="122.16444" gradientUnits="userSpaceOnUse" id="color-3"><stop offset="0" stop-color="#ffffff"/><stop offset="1" stop-color="#ffffff" stop-opacity="0"/></radialGradient><radialGradient cx="374.24102" cy="144.53472" r="122.16444" gradientUnits="userSpaceOnUse" id="color-4"><stop offset="0" stop-color="#ffffff"/><stop offset="1" stop-color="#ffffff" stop-opacity="0"/></radialGradient><radialGradient cx="451.43015" cy="144.53472" r="122.16444" gradientUnits="userSpaceOnUse" id="color-5"><stop offset="0" stop-color="#ffffff"/><stop offset="1" stop-color="#ffffff" stop-opacity="0"/></radialGradient><radialGradient cx="260.54351" cy="212.33599" r="122.16444" gradientUnits="userSpaceOnUse" id="color-6"><stop offset="0" stop-color="#ffffff"/><stop offset="1" stop-color="#ffffff" stop-opacity="0"/></radialGradient><radialGradient cx="336.68954" cy="215.46528" r="122.16444" gradientUnits="userSpaceOnUse" id="color-7"><stop offset="0" stop-color="#ffffff"/><stop offset="1" stop-color="#ffffff" stop-opacity="0"/></radialGradient></defs><g transform="translate(-66.40541,-22.37028)"><g stroke-miterlimit="10"><g stroke="none" stroke-width="0"><path d="M66.40541,146.62091c0,-67.46956 54.69489,-122.16444 122.16444,-122.16444c67.46956,0 122.16444,54.69489 122.16444,122.16444c0,67.46956 -54.69489,122.16444 -122.16444,122.16444c-67.46956,0 -122.16444,-54.69489 -122.16444,-122.16444z" fill="url(#color-1)"/><path d="M119.60332,154.96569c0,-67.46956 54.69489,-122.16444 122.16444,-122.16444c67.46956,0 122.16444,54.69489 122.16444,122.16444c0,67.46956 -54.69489,122.16444 -122.16444,122.16444c-67.46956,0 -122.16444,-54.69489 -122.16444,-122.16444z" fill="url(#color-2)"/><path d="M196.79246,148.70711c0,-67.46956 54.69489,-122.16444 122.16444,-122.16444c67.46956,0 122.16444,54.69489 122.16444,122.16444c0,67.46956 -54.69489,122.16444 -122.16444,122.16444c-67.46956,0 -122.16444,-54.69489 -122.16444,-122.16444z" fill="url(#color-3)"/><path d="M252.07656,144.53472c0,-67.46956 54.69489,-122.16444 122.16444,-122.16444c67.46956,0 122.16444,54.69489 122.16444,122.16444c0,67.46956 -54.69489,122.16444 -122.16444,122.16444c-67.46956,0 -122.16444,-54.69489 -122.16444,-122.16444z" fill="url(#color-4)"/><path d="M329.26571,144.53472c0,-67.46956 54.69489,-122.16444 122.16444,-122.16444c67.46956,0 122.16444,54.69489 122.16444,122.16444c0,67.46956 -54.69489,122.16444 -122.16444,122.16444c-67.46956,0 -122.16444,-54.69489 -122.16444,-122.16444z" fill="url(#color-5)"/><path d="M138.37906,212.33599c0,-67.46956 54.69489,-122.16444 122.16444,-122.16444c67.46956,0 122.16444,54.69489 122.16444,122.16444c0,67.46956 -54.69489,122.16444 -122.16444,122.16444c-67.46956,0 -122.16444,-54.69489 -122.16444,-122.16444z" fill="url(#color-6)"/><path d="M214.5251,215.46528c0,-67.46956 54.69489,-122.16444 122.16444,-122.16444c67.46956,0 122.16444,54.69489 122.16444,122.16444c0,67.46956 -54.69489,122.16444 -122.16444,122.16444c-67.46956,0 -122.16444,-54.69489 -122.16444,-122.16444z" fill="url(#color-7)"/></g><g fill="#ff9400" font-family="Handwriting" font-weight="normal" font-size="40" text-anchor="start"><text transform="translate(205.5677,181.49702) scale(2.35664,2.35664)" font-size="40" xml:space="preserve" fill="#ff9400" stroke="#c47200" stroke-width="12"><tspan x="0" dy="0">2</tspan></text><text transform="translate(205.5677,181.49702) scale(2.35664,2.35664)" font-size="40" xml:space="preserve" fill="#ff9400" stroke="#e48500" stroke-width="6"><tspan x="0" dy="0">2</tspan></text><text transform="translate(205.5677,181.49702) scale(2.35664,2.35664)" font-size="40" xml:space="preserve" fill="#ff9400" stroke="none" stroke-width="1"><tspan x="0" dy="0">2</tspan></text></g><g fill="#ffdf00" font-family="Handwriting" font-weight="normal" font-size="40" text-anchor="start"><text transform="translate(279.87536,184.12369) scale(2.35664,2.35664)" font-size="40" xml:space="preserve" fill="#ffdf00" stroke="#b9a100" stroke-width="12"><tspan x="0" dy="0">3</tspan></text><text transform="translate(279.87536,184.12369) scale(2.35664,2.35664)" font-size="40" xml:space="preserve" fill="#ffdf00" stroke="#d7ba00" stroke-width="7"><tspan x="0" dy="0">3</tspan></text><text transform="translate(279.87536,184.12369) scale(2.35664,2.35664)" font-size="40" xml:space="preserve" fill="#ffdf00" stroke="none" stroke-width="1"><tspan x="0" dy="0">3</tspan></text></g><g fill="#3ef724" font-family="Handwriting" font-weight="normal" font-size="40" text-anchor="start"><text transform="translate(347.22647,180.18367) scale(2.35664,2.35664)" font-size="40" xml:space="preserve" fill="#3ef724" stroke="#2db41b" stroke-width="11"><tspan x="0" dy="0">4</tspan></text><text transform="translate(347.22647,180.18367) scale(2.35664,2.35664)" font-size="40" xml:space="preserve" fill="#3ef724" stroke="#34d220" stroke-width="7"><tspan x="0" dy="0">4</tspan></text><text transform="translate(347.22647,180.18367) scale(2.35664,2.35664)" font-size="40" xml:space="preserve" fill="#3ef724" stroke="none" stroke-width="1"><tspan x="0" dy="0">4</tspan></text></g><g fill="#25d1f7" font-family="Handwriting" font-weight="normal" font-size="40" text-anchor="start"><text transform="translate(408.87227,179.13094) rotate(12.36943) scale(2.81681,2.81681)" font-size="40" xml:space="preserve" fill="#25d1f7" stroke="#1b96b2" stroke-width="12"><tspan x="0" dy="0">5</tspan></text><text transform="translate(408.87227,179.13094) rotate(12.36943) scale(2.81681,2.81681)" font-size="40" xml:space="preserve" fill="#25d1f7" stroke="#1faece" stroke-width="8"><tspan x="0" dy="0">5</tspan></text><text transform="translate(408.87227,179.13094) rotate(12.36943) scale(2.81681,2.81681)" font-size="40" xml:space="preserve" fill="#25d1f7" stroke="none" stroke-width="1"><tspan x="0" dy="0">5</tspan></text></g><g fill="#ff0000" font-family="Handwriting" font-weight="400" font-size="40" text-anchor="start"><text transform="translate(157.60557,189.8301) rotate(-10.66083) scale(2.81681,2.81681)" font-size="40" xml:space="preserve" fill="#ff0000" stroke="#ae0000" stroke-width="10"><tspan x="0" dy="0">1</tspan></text><text transform="translate(157.60557,189.8301) rotate(-10.66083) scale(2.81681,2.81681)" font-size="40" xml:space="preserve" fill="#ff0000" stroke="#d00000" stroke-width="6"><tspan x="0" dy="0">1</tspan></text><text transform="translate(157.60557,189.8301) rotate(-10.66083) scale(2.81681,2.81681)" font-size="40" xml:space="preserve" fill="#ff0000" stroke="none" stroke-width="1"><tspan x="0" dy="0">1</tspan></text></g><g fill="#ffdf00" font-family="Handwriting" font-weight="normal" font-size="40" text-anchor="start"><text transform="translate(220.10803,230.18171) scale(0.8633,0.8633)" font-size="40" xml:space="preserve" fill="#ffdf00" stroke="#000000" stroke-width="5"><tspan x="0" dy="0">Productions</tspan></text><text transform="translate(220.10803,230.18171) scale(0.8633,0.8633)" font-size="40" xml:space="preserve" fill="#ffdf00" stroke="#ffdf00" stroke-width="1"><tspan x="0" dy="0">Productions</tspan></text></g></g></g></svg>