<svg version="1.1" xmlns="http://www.w3.org/2000/svg" xmlns:xlink="http://www.w3.org/1999/xlink" width="931.28657" height="537.8247" viewBox="0,0,931.28657,537.8247"><g transform="translate(169.60863,116.50833)"><g stroke="none" stroke-miterlimit="10"><path d="M-88.17191,381.3015v-408.40841h849.84985v408.40841z" fill="#ffffff" stroke-width="0"/><path d="M-131.91125,331.92646l-1.24782,-1.2141l-0.38971,-0.93531l-1.07826,-1.61739l-1.25257,-1.25257l-1.15973,-1.41745l-3.16961,-2.00186l-0.06244,-0.06075l-0.07738,-0.04002l-3.03835,-2.48592l-1.58111,-1.58111l-0.54383,-0.32354l-0.59201,-0.8123l-0.28605,-0.28605l-2.48592,-3.03835l-0.85348,-1.65006l-1.09417,-1.5013l-1.60584,-3.58227l-0.12793,-0.38378l-0.46179,-0.89279l-0.04618,-0.63111l-5.37011,-16.11034l-0.86469,-3.82932l-0.00119,-0.08711l-0.02641,-0.08302l-0.39062,-3.90625v-2.92837l-0.75506,-3.02026l-0.2815,-1.92359l-0.07431,-0.23355l-0.0866,-0.86604l-0.12603,-0.86118l0.01545,-0.2446l-0.19344,-1.93443v-3.45057l-0.21858,-0.65575l-0.86469,-3.82932l-0.00119,-0.08711l-0.02641,-0.08302l-0.39062,-3.90625v-46.54655l0.17642,-1.76416l0.07485,-1.77138l1.5015,-10.51051l0.93913,-3.81175l0.03789,-0.07845l0.0135,-0.08606l1.39754,-3.66855l1.5015,-3.003l1.19895,-1.89833l1.16173,-1.92133l3.15196,-4.20261l1.99487,-3.98974l0.68451,-1.08381l0.71303,-1.71128l3.54172,-3.446l1.55946,-1.60278l1.70485,-2.55728l0.36073,-0.72146l0.27069,-0.97642l1.0876,-1.3595l1.18273,-1.87266l1.7741,-1.82338l1.58925,-1.98656l1.7115,-1.40587l1.2141,-1.24782l0.14526,-0.06053l1.06014,-1.78194l2.57694,-1.87811l2.22366,-2.28543l1.72211,-0.71754l2.06024,-1.50153l2.22366,-2.28543l2.12975,-0.8874l0.35771,-0.2607l0.59239,-0.26556l1.41431,-1.45359l1.58925,-1.98656l1.7115,-1.40587l0.20434,-0.21002l1.1888,-2.3776l0.27069,-0.97642l1.0876,-1.3595l1.18273,-1.87266l1.7741,-1.82338l0.7059,-0.88237l0.41388,-1.30075l1.7388,-2.01335l1.36017,-2.28625l1.65776,-1.20819l2.66514,-3.08596l2.4939,-0.67403l0.47126,-0.34346l2.25737,-1.01192l0.8574,-0.52926l1.24138,-1.01567l2.49284,-1.2894l2.38821,-1.4742l1.50962,-0.54191l1.61953,-0.83769l0.61195,-0.04478l0.38686,-0.31652l0.07738,-0.04002l0.06244,-0.06075l3.31916,-2.09631l3.003,-1.5015l1.31724,-0.50181l0.10483,-0.06471l1.12726,-0.40466l1.11922,-0.42637l0.12171,-0.01909l1.32669,-0.47625l3.34364,-0.83591l7.75886,-3.87943l0.47891,-0.41361l0.95783,-0.30476l0.36183,-0.18092l3.66855,-1.39754l1.83527,-0.28789l1.77027,-0.56327l1.18374,-0.11837l0.86702,-0.57801l2.14747,-1.14084l0.23207,-0.16914l0.55257,-0.2477l0.53477,-0.28409l0.27599,-0.07935l2.21895,-0.9947l1.15791,-0.38597l1.08212,-1.08212l1.9066,-1.55994l1.47949,-1.21529l0.03322,-0.0526l1.7741,-1.82338l1.58925,-1.98656l1.7115,-1.40587l1.2141,-1.24782l0.93531,-0.38971l3.67712,-2.45141l1.37283,-0.72932l1.31434,-0.83011l1.40186,-0.70093l1.41699,-4.4534l0.36879,-0.42702l0.41246,-1.52611l3.56326,-3.07736l3.07736,-3.56326l1.52611,-0.41246l0.42702,-0.36879l8.59375,-2.73437l3.90625,-0.39062h6.00601l1.93443,0.19344l0.2446,-0.01545l0.86118,0.12603l0.86604,0.0866l0.23355,0.07431l1.92359,0.2815l5.1236,1.2809l1.86002,-0.1076l9.75859,5.80574l0.25878,0.35507l0.37387,0.23078l3.2255,4.58115l1.34926,0.85216l0.06244,0.06075l0.07738,0.04002l3.03835,2.48592l3.003,3.003l0.41511,0.50736l0.90249,0.65775l1.65006,0.85348l3.03835,2.48592l0.28605,0.28605l0.8123,0.59201l0.32354,0.54383l3.3278,3.3278l10.59066,7.94299l1.30548,1.19963l1.37219,1.1227l3.52542,3.52542l4.35816,3.48653l0.6341,0.31705l3.31916,2.09631l0.06244,0.06075l0.07738,0.04002l3.03835,2.48592l2.75407,2.75407l1.14973,0.76649l6.02776,3.01388l0.95811,0.31937l7.07416,1.17903l1.88779,0.51194l1.90793,0.43082l0.65575,0.21858h0.44756l2.45122,0.24512l2.45169,0.24036l7.50751,1.5015l1.48644,0.45503l1.51635,0.3424l4.5045,1.5015l2.21895,0.9947l0.27599,0.07935l0.53477,0.28409l0.55257,0.2477l0.23207,0.16914l0.50135,0.26634l0.69388,0.06939l1.77027,0.56327l1.83527,0.28789l3.66855,1.39754l0.36183,0.18092l0.57441,0.18277h3.89057l0.61332,-0.15576l0.993,0.15576h0.40454l3.90625,0.39063l1.77027,0.56327l1.83527,0.28789l3.66855,1.39754l0.36183,0.18092l0.95783,0.30476l0.47891,0.41361l4.20743,2.10372l1.31434,0.83011l1.37283,0.72932l4.5045,3.003l1.90357,1.56364l1.9066,1.55994l1.25257,1.25257l1.14973,0.76649l0.02175,0.01088l0.91131,0.30377l0.63111,0.04618l0.89279,0.46179l0.38378,0.12793l3.58227,1.60584l1.5013,1.09417l1.65006,0.85348l2.84388,2.32681l0.5391,0.08456l3.66855,1.39754l0.36183,0.18092l0.95783,0.30476l0.35801,0.30919l2.55519,0.85173l1.61784,0.72524l1.65681,0.63116l4.45504,2.22752l0.28288,0.02829l0.4218,0.13421l2.30108,0.16837l2.83227,1.46497l3.0386,0.96683l1.74617,1.50805l0.39315,0.20336l1.63312,1.33619l1.35971,0.60952l0.27599,0.07935l0.53477,0.28409l0.55257,0.2477l0.23207,0.16914l2.14747,1.14084l3.20947,2.13964l0.02175,0.01088l2.81898,0.93966l1.61784,0.72524l1.65681,0.63116l0.06357,0.03178l1.10846,-1.35478l0.28605,-0.28605l0.59201,-0.8123l0.45028,-0.26789l3.7219,-5.58286l0.03005,-0.3005l0.85096,-2.67445l0.6463,-2.73114l0.68427,-1.45065l0.55284,-1.73751l0.72148,-0.8354l1.99276,-3.32127l0.65225,-3.26126l0.17459,-0.57032l0.08637,-0.59016l3.003,-12.01201l0.1412,-0.39336l0.07426,-0.41128l2.61403,-9.14909l1.26873,-7.61238l0.35236,-1.29932l0.00751,-0.10354l0.34337,-1.19034l0.32425,-1.19569l0.04731,-0.0924l0.37313,-1.29351l1.21492,-3.0373v-1.19145l0.19344,-1.93443l-0.01545,-0.2446l0.12603,-0.86118l0.0866,-0.86604l0.07431,-0.23355l0.2815,-1.92359l1.09367,-4.37467l1.31581,-11.84225l0.08181,-0.38323l0.01654,-0.39152l1.5015,-10.51051l0.40777,-1.65506l0.30287,-1.67743l2.0411,-7.14386v-10.01214l0.14026,-1.40259l-0.011,-0.1227l0.14219,-1.18922l0.11917,-1.19174l0.03735,-0.1174l0.16735,-1.39962l3.003,-13.51351l0.63259,-1.91957l0.56017,-1.94194l2.90209,-7.25523l3.90912,-10.42433l1.15615,-4.62458l0.48076,-1.33926l0.36457,-1.37544l4.5045,-12.01201l0.12071,-0.2446l0.0756,-0.26208l2.90209,-7.25523l4.4091,-11.7576l1.00351,-2.03344l0.96739,-2.05087l4.5045,-7.50751l0.35624,-0.47838l0.27983,-0.52673l2.52538,-3.78807l5.57881,-9.76291l0.90174,-1.26627l0.80434,-1.33026l4.08816,-5.45088l2.61809,-3.92714l2.32646,-2.83221l0.05118,-0.07676l0.06048,-0.05917l0.0537,-0.06538l0.07204,-0.05763l2.62002,-2.56307l6.42629,-5.14104l12.53443,-12.53443l1.37219,-1.1227l1.30548,-1.19963l3.14886,-2.36165l2.36165,-3.14886l0.43489,-0.47326l0.78909,-1.32634l1.30105,-0.94822l0.13122,-0.1428l2.93904,-2.09485l2.91675,-2.12577l0.17697,-0.07933l1.31099,-0.93443l1.50781,-0.32917l0.5865,-0.26291l2.55519,-0.85173l0.35801,-0.30919l0.95783,-0.30476l0.36183,-0.18092l3.66855,-1.39754l1.83527,-0.28789l1.77027,-0.56327l3.90625,-0.39062h0.40454l0.993,-0.15576l0.61332,0.15576h0.99214l1.76416,0.17642l1.77138,0.07485l10.51051,1.5015l0.67525,0.16637l0.69212,0.06786l7.50751,1.5015l2.32519,0.71179l0.2837,0.0445l0.56588,0.21557l0.57902,0.17725l0.25126,0.13905l2.27239,0.86567l9.00901,4.5045l0.68234,0.43095l0.7341,0.33526l17.32215,10.10458l10.80781,5.4039l1.7135,0.38692l0.65575,0.21858h6.45357l3.90625,0.39063l0.08302,0.02641l0.08711,0.00119l3.61185,0.81558l0.31014,-0.06277l1.71315,0.71381l2.69869,0.89956l3.58227,1.60584l0.35771,0.2607l2.12975,0.8874l0.84311,0.86652l1.5881,0.45658l0.46958,0.24947l1.62979,0.51857l1.04473,0.90227l0.32277,0.17147l4.5045,3.003l1.90357,1.56364l0.50137,0.41021l1.35971,0.60952l0.27599,0.07935l0.53477,0.28409l0.55257,0.2477l0.23207,0.16914l2.14747,1.14084l3.20947,2.13964l6.02776,3.01388l7.32349,2.44116l3.58227,1.60584l0.0704,0.05131l0.08226,0.02868l3.35938,2.03125l1.12913,0.84685l1.8305,0.30508l0.95973,-0.03612l1.54672,0.59403l2.44779,0.66381l2.15946,1.10564l2.26477,0.8698l2.12826,1.37943l1.4748,0.7551l0.61377,0.73869l5.73779,4.59023l3.60181,2.4012l1.90357,1.56364l1.9066,1.55994l3.18818,3.18818h0.15517l1.93443,0.19344l0.2446,-0.01545l0.86118,0.12603l0.86604,0.0866l0.23355,0.07431l1.92359,0.2815l3.02026,0.75506h4.42987l3.90625,0.39063l0.08302,0.02641l0.08711,0.00119l3.82932,0.86469l4.5045,1.5015l3.58227,1.60584l0.47126,0.34346l2.4939,0.67403l2.66514,3.08596l1.65776,1.20819l1.36017,2.28625l1.7388,2.01335l0.62197,1.95475l2.0848,3.50424l-0.1492,2.57907l0.17681,0.55569l0.39063,3.90625v5.49664l0.15576,0.61332l-0.15576,0.993v0.40454l-0.39062,3.90625l-0.56327,1.77027l-0.28789,1.83527l-1.39754,3.66855l-0.18092,0.36183l-0.30476,0.95783l-0.41361,0.47891l-10.46984,20.93968l-10.98481,30.20823l-7.15995,31.5038l-0.73983,2.20921l-0.71174,2.21842l-15.01502,34.53453l-0.83339,1.49062l-0.73839,1.5399l-21.02102,34.53453l-0.22357,0.29626l-0.17031,0.32977l-19.16806,29.48933l-8.56422,14.79275l0.39243,-0.08567l0.37306,-0.18653l0.56158,-0.65025l1.60825,-0.43466l1.66454,-0.83227l3.66855,-1.39754l6.95224,-1.09055l0.55955,-0.15123l0.14857,0.04015l1.24898,-0.19592l11.00565,2.79508l0.8362,0.93889l1.21373,0.32804l7.42188,8.59375l0.38332,1.20474l0.10235,0.11492l0.11498,0.56811l2.13372,6.70598l0.39063,3.90625v1.86101l0.33046,1.63285l-0.33046,0.7931v10.2187l0.15576,0.61332l-0.15576,0.993v0.40454l-0.39062,3.90625l-0.56327,1.77027l-0.28789,1.83527l-1.39754,3.66855l-0.18092,0.36183l-0.30476,0.95783l-0.41361,0.47891l-2.4674,4.9348v2.5557l0.18885,1.08754l-0.41988,1.77434l-0.1596,1.59598l-0.85096,2.67445l-0.6463,2.73114l-0.68427,1.45065l-0.55284,1.73751l-0.72148,0.8354l-1.99276,3.32127l-0.65225,3.26126l-0.29646,0.96844l-0.17996,0.99668l-2.72503,9.53759l-2.31908,11.5954v0.52752l-0.12456,1.24556l0.45501,2.2483l-2.49559,5.98941l-0.95987,3.01673l-0.57406,0.6647l-0.3378,0.81072l-2.26898,2.20766l-3.567,4.13021l-0.03942,0.14584l-0.34053,0.29409l-0.29409,0.34053l-0.14584,0.03942l-1.88154,1.62497l-0.1223,0.14889l-0.67988,0.54391l-5.12956,4.43007l-0.67749,0.21556l-0.55516,0.44413l-6.53141,1.81069l-0.82969,0.26399l-0.19173,0.01917l-3.3895,0.93966l-1.69172,-0.56821h-1.56166l-9.02626,2.25657l-1.92359,0.2815l-0.23355,0.07431l-0.86604,0.0866l-0.86118,0.12603l-0.2446,-0.01545l-1.93443,0.19344h-0.81465l-1.42952,2.03034l-0.81671,1.9601l-1.78875,1.74041l-1.74214,2.47434l-2.19092,1.35242l-0.74182,0.72177l-3.31916,2.09631l-3.003,1.5015l-1.65681,0.63116l-1.61784,0.72524l-9.00901,3.003l-1.51635,0.3424l-1.48644,0.45503l-0.75227,0.15045l-3.87487,1.54995l-0.98635,0.28453l-0.94627,0.39803l-13.58471,4.17991l-1.6153,1.6153l-3.03835,2.48592l-0.39315,0.20336l-1.74617,1.50805l-3.0386,0.96683l-2.83227,1.46497l-2.30108,0.16837l-0.4218,0.13421l-3.90625,0.39063h-2.49364l-0.61332,0.15576l-0.55872,-0.08764l-14.38639,6.63987l-1.30797,0.45202l-1.26279,0.56608l-13.51351,4.5045l-0.53137,0.11999l-0.5063,0.20103l-10.51051,3.003l-1.39243,0.25141l-1.36562,0.37034l-9.00901,1.5015l-2.05789,0.13494l-2.05208,0.20521h-9.00901l-3.90625,-0.39062l-0.08302,-0.02641l-0.08711,-0.00119l-3.82932,-0.86469l-4.5045,-1.5015l-1.48434,-0.66539l-2.33513,-0.32814l-1.01196,-0.91309l-2.53815,1.01526l-5.07592,2.53796l-2.27239,0.86567l-0.25126,0.13905l-0.57902,0.17725l-0.56588,0.21557l-0.2837,0.0445l-2.32519,0.71179l-15.01502,3.003l-0.69212,0.06786l-0.67525,0.16637l-7.54378,1.07768l-12.23251,4.893l-2.19622,0.63352l-2.18565,0.66908l-7.50751,1.5015l-0.69212,0.06786l-0.67525,0.16637l-9.23381,1.31912l-4.75485,1.18871l-1.92359,0.2815l-0.23355,0.07431l-0.86604,0.0866l-0.86118,0.12603l-0.2446,-0.01545l-1.93443,0.19344h-28.52853l-0.82965,-0.08296l-0.83333,0.02759l-16.09224,-1.07282l-23.0977,1.09989l-1.04107,-0.05427l-1.04035,0.06664l-42.04204,-1.5015l-1.5688,-0.21367l-1.58018,-0.0992l-38.8489,-6.36365l-1.25515,-0.33663l-1.28152,-0.21548l-48.23819,-13.15587l-0.89758,-0.34393l-0.9329,-0.23162l-10.03675,-3.58455l-13.50228,-1.03864l-0.28286,-0.05043h-0.28732l-15.01502,-1.5015l-2.18588,-0.44159l-2.19455,-0.39624l-9.53759,-2.72503l-11.5954,-2.31908h-14.04103l-1.93443,-0.19344l-0.2446,0.01545l-0.86118,-0.12603l-0.86604,-0.0866l-0.23355,-0.07431l-1.92359,-0.2815l-12.01201,-3.003l-0.90469,-0.32476l-0.93761,-0.21172l-13.51351,-4.5045l-0.67175,-0.30113l-0.70732,-0.20403l-7.50751,-3.003l-0.92303,-0.48075l-0.97254,-0.37049l-3.003,-1.5015l-1.08381,-0.68451l-1.71128,-0.71303l-3.446,-3.54172l-3.54172,-3.446l-0.71303,-1.71128l-0.68451,-1.08381l-3.003,-6.00601l-1.39754,-3.66855l-0.34163,-2.17792l-0.55999,-1.2239l0.14251,-1.43753l-0.63843,-4.06999l1.70906,-6.72943l0.26388,-2.66171l0.59353,-0.71434l0.03442,-0.13551zM459.72243,301.14109l0.86932,-4.34658l-1.12669,0.69335l-1.40596,0.6826l-1.3514,0.7851l-7.24216,3.29189h5.83145z" fill="#ffffff" stroke-width="0.5"/><path d="M-131.91125,331.92646l-1.24782,-1.2141l-0.38971,-0.93531l-1.07826,-1.61739l-1.25257,-1.25257l-1.15973,-1.41745l-3.16961,-2.00186l-0.06244,-0.06075l-0.07738,-0.04002l-3.03835,-2.48592l-1.58111,-1.58111l-0.54383,-0.32354l-0.59201,-0.8123l-0.28605,-0.28605l-2.48592,-3.03835l-0.85348,-1.65006l-1.09417,-1.5013l-1.60584,-3.58227l-0.12793,-0.38378l-0.46179,-0.89279l-0.04618,-0.63111l-5.37011,-16.11034l-0.86469,-3.82932l-0.00119,-0.08711l-0.02641,-0.08302l-0.39062,-3.90625v-2.92837l-0.75506,-3.02026l-0.2815,-1.92359l-0.07431,-0.23355l-0.0866,-0.86604l-0.12603,-0.86118l0.01545,-0.2446l-0.19344,-1.93443v-3.45057l-0.21858,-0.65575l-0.86469,-3.82932l-0.00119,-0.08711l-0.02641,-0.08302l-0.39062,-3.90625v-46.54655l0.17642,-1.76416l0.07485,-1.77138l1.5015,-10.51051l0.93913,-3.81175l0.03789,-0.07845l0.0135,-0.08606l0.29984,-0.78708c11.60589,4.24456 23.09655,9.12669 34.12527,14.30114c8.993,4.21934 16.81213,10.64848 25.69504,15.09491c19.85532,9.93879 41.70536,17.53476 62.89067,24.52433c15.50769,5.11639 31.54611,2.61016 47.47893,3.40893c7.11598,0.35675 25.40656,2.25077 32.95048,2.99923c6.38506,-0.05579 12.60504,2.05504 18.92649,2.9557c5.94623,0.8472 11.95435,-1.41929 17.96056,-1.44802c21.69238,-0.10375 42.14924,6.44745 62.05607,14.32853c10.95693,4.33783 20.10953,11.88804 30.37655,17.47679c18.00633,9.80156 41.7047,20.71931 62.14882,23.68154c10.18165,1.47526 15.1455,-2.44497 24.73898,-4.74612c10.7596,-2.58087 22.06041,-1.76277 33.10372,-2.452c26.73589,-2.48739 54.49283,25.59748 78.0478,33.67892c7.70763,2.64441 17.96192,5.11294 25.72467,6.46948c32.16609,5.62102 64.1043,2.49942 96.09951,-0.21728l-3.75253,3.24081l-0.67749,0.21556l-0.55516,0.44413l-6.53141,1.81069l-0.82969,0.26399l-0.19173,0.01917l-3.3895,0.93966l-1.69172,-0.56821h-1.56166l-9.02626,2.25657l-1.92359,0.2815l-0.23355,0.07431l-0.86604,0.0866l-0.86118,0.12603l-0.2446,-0.01545l-1.93443,0.19344h-0.81465l-1.42952,2.03034l-0.81671,1.9601l-1.78875,1.74041l-1.74214,2.47434l-2.19092,1.35242l-0.74182,0.72177l-3.31916,2.09631l-3.003,1.5015l-1.65681,0.63116l-1.61784,0.72524l-9.00901,3.003l-1.51635,0.3424l-1.48644,0.45503l-0.75227,0.15045l-3.87487,1.54995l-0.98635,0.28453l-0.94627,0.39803l-13.58471,4.17991l-1.6153,1.6153l-3.03835,2.48592l-0.39315,0.20336l-1.74617,1.50805l-3.0386,0.96683l-2.83227,1.46497l-2.30108,0.16837l-0.4218,0.13421l-3.90625,0.39063h-2.49364l-0.61332,0.15576l-0.55872,-0.08764l-14.38639,6.63987l-1.30797,0.45202l-1.26279,0.56608l-13.51351,4.5045l-0.53137,0.11999l-0.5063,0.20103l-10.51051,3.003l-1.39243,0.25141l-1.36562,0.37034l-9.00901,1.5015l-2.05789,0.13494l-2.05208,0.20521h-9.00901l-3.90625,-0.39062l-0.08302,-0.02641l-0.08711,-0.00119l-3.82932,-0.86469l-4.5045,-1.5015l-1.48434,-0.66539l-2.33513,-0.32814l-1.01196,-0.91309l-2.53815,1.01526l-5.07592,2.53796l-2.27239,0.86567l-0.25126,0.13905l-0.57902,0.17725l-0.56588,0.21557l-0.2837,0.0445l-2.32519,0.71179l-15.01502,3.003l-0.69212,0.06786l-0.67525,0.16637l-7.54378,1.07768l-12.23251,4.893l-2.19622,0.63352l-2.18565,0.66908l-7.50751,1.5015l-0.69212,0.06786l-0.67525,0.16637l-9.23381,1.31912l-4.75485,1.18871l-1.92359,0.2815l-0.23355,0.07431l-0.86604,0.0866l-0.86118,0.12603l-0.2446,-0.01545l-1.93443,0.19344h-28.52853l-0.82965,-0.08296l-0.83333,0.02759l-16.09224,-1.07282l-23.0977,1.09989l-1.04107,-0.05427l-1.04035,0.06664l-42.04204,-1.5015l-1.5688,-0.21367l-1.58018,-0.0992l-38.8489,-6.36365l-1.25515,-0.33663l-1.28152,-0.21548l-48.23819,-13.15587l-0.89758,-0.34393l-0.9329,-0.23162l-10.03675,-3.58455l-13.50228,-1.03864l-0.28286,-0.05043h-0.28732l-15.01502,-1.5015l-2.18588,-0.44159l-2.19455,-0.39624l-9.53759,-2.72503l-11.5954,-2.31908h-14.04103l-1.93443,-0.19344l-0.2446,0.01545l-0.86118,-0.12603l-0.86604,-0.0866l-0.23355,-0.07431l-1.92359,-0.2815l-12.01201,-3.003l-0.90469,-0.32476l-0.93761,-0.21172l-13.51351,-4.5045l-0.67175,-0.30113l-0.70732,-0.20403l-7.50751,-3.003l-0.92303,-0.48075l-0.97254,-0.37049l-3.003,-1.5015l-1.08381,-0.68451l-1.71128,-0.71303l-3.446,-3.54172l-3.54172,-3.446l-0.71303,-1.71128l-0.68451,-1.08381l-3.003,-6.00601l-1.39754,-3.66855l-0.34163,-2.17792l-0.55999,-1.2239l0.14251,-1.43753l-0.63843,-4.06999l1.70906,-6.72943l0.26388,-2.66171l0.59353,-0.71434l0.03442,-0.13551z" fill="#ececec" stroke-width="0.5"/><path d="M283.36394,123.51803c-1.11803,-2.23607 1.11803,-3.3541 1.11803,-3.3541l1.73128,-0.84406c2.45799,-1.6303 5.10919,-2.97101 7.80235,-4.17371c19.42563,-8.59184 67.18705,-20.73291 88.6127,-11.94753c12.71511,-3.87344 25.18041,-8.43866 38.02435,-11.95073c33.76325,-9.22031 67.37211,-18.768 100.90636,-28.78973c3.80131,-1.13602 7.62099,-2.22734 11.45318,-3.2883c8.58511,-20.58209 17.52676,-41.07248 28.01615,-60.55277c1.46118,-2.70953 9.17613,-15.20054 6.62157,-17.65279c-17.56858,-16.86501 -43.31882,-28.99839 -64.63992,-40.75362c-29.07604,-16.04673 -62.46551,-24.23147 -94.26149,-33.06368c-10.49766,-2.92124 -22.39876,-6.55834 -32.1363,-11.45045c-1.87145,-0.94021 -4.16665,-1.59292 -5.32187,-3.33985c-0.66424,-1.00447 1.75422,-3.82485 0.5781,-3.56615c-16.05197,3.5308 -28.18261,16.05919 -39.42957,27.30614c-23.43575,23.43575 -42.70745,54.08798 -55.3773,84.49561c-4.23901,10.17363 -8.2584,20.25021 -12.06639,30.33627c0.89816,-0.17701 1.72289,0.23535 1.72289,0.23535c25.41434,12.72667 49.43887,30.26938 73.06997,46.02345c3.14361,2.09606 19.85666,10.23896 14.8401,16.6744c-2.10377,2.6988 -17.34887,1.98166 -20.78461,2.24893c-19.53392,1.51957 -38.46506,6.82392 -57.94511,8.77192c-9.99,0.999 -19.95224,1.99604 -29.97301,2.62478c-1.62136,0.10173 -3.37637,0.26986 -5.18758,0.43152c-4.74562,24.24556 -3.6378,50.09733 -3.6378,74.46107c0,0 0,2.5 -2.5,2.5c-2.5,0 -2.5,-2.5 -2.5,-2.5c0,-24.29108 -0.97247,-49.8842 3.50408,-74.08556c-2.95628,0.13863 -5.87216,0.08756 -8.43092,-0.45115c-0.45766,-0.09635 -8.82286,-3.1764 -9.60064,-3.46129l-3.37167,-0.53408c0,0 -2.46793,-0.39914 -2.06879,-2.86707c0.39914,-2.46793 2.86707,-2.06879 2.86707,-2.06879l3.83246,0.63106c3.07064,1.10924 6.00648,2.67279 9.19523,3.37358c2.54844,0.56006 5.56027,0.54913 8.59155,0.35356c0.52149,-2.37671 1.10081,-4.73793 1.74421,-7.08104c9.32498,-33.78464 20.60471,-65.19079 34.08355,-97.54c12.91437,-30.99448 32.56951,-62.22043 56.45715,-86.10807c7.15956,-7.15956 33.58197,-33.0322 44.4283,-28.55172c1.6379,0.6766 3.04236,2.17118 3.70152,3.81617c0.35318,0.88139 -1.53034,1.75976 -1.12342,2.61767c1.08635,2.29037 4.86094,1.45063 7.24363,2.31594c8.94575,3.2488 17.75944,7.02665 26.93337,9.57019c32.19116,8.94199 65.89044,17.28277 95.33738,33.50268c13.01247,7.17432 58.75467,32.03759 66.12603,42.00358c4.58604,6.20028 -3.05724,17.45683 -6.11943,23.15192c-9.80131,18.20244 -18.24161,37.29476 -26.30583,56.51615c22.29393,-5.99004 44.9038,-11.2152 66.68458,-18.47546c0,0 2.37171,-0.79057 3.16228,1.58114c0.79057,2.37171 -1.58114,3.16228 -1.58114,3.16228c-23.09256,7.69752 -47.11168,13.1146 -70.70347,19.57082c-4.6021,11.07041 -9.11269,22.15806 -13.7194,33.11803c-4.91967,11.70425 -9.73245,23.43742 -14.56626,35.15698c19.00375,1.97665 38.03959,3.64426 57.09917,4.58415c9.72019,0.47933 19.36714,0.69833 29.09939,0.69833h2c0,0 2.5,0 2.5,2.5c0,2.5 -2.5,2.5 -2.5,2.5h-2c-9.81395,0 -19.54386,-0.22103 -29.34566,-0.70439c-19.64229,-0.96863 -39.25938,-2.70637 -58.84228,-4.75939c-7.84821,18.98849 -15.79775,37.92587 -24.39337,56.63094c-3.32871,7.24365 -14.18812,35.64136 -21.12287,43.72423c4.70071,-0.83136 10.9804,1.34052 15.21261,2.89266c9.13654,3.35078 19.53239,8.12775 27.29118,13.92828c40.43119,30.38844 14.40876,57.61401 -14.0869,82.94348c-25.85559,22.98161 -54.7419,38.74752 -87.18781,50.14743c-32.91157,11.56352 -68.65504,14.0486 -103.15196,16.92391c-34.91833,2.91043 -69.91996,4.20699 -104.92117,5.79981c-34.79994,1.58366 -70.56796,-0.54426 -105.2009,-3.94061c-35.05922,-3.43816 -68.6446,-13.60773 -102.7938,-22.1451c-18.37081,-4.59274 -38.62121,-7.9794 -56.31342,-14.59249c-14.04157,-5.24853 -27.18934,-12.88552 -41.35841,-18.16373c-27.06298,-20.93299 -54.87765,-45.37509 -56.80737,-82.03981c-0.48819,-9.27554 -2.1341,-20.45542 -0.43586,-29.60161c3.51161,-18.91242 19.61954,-51.12784 27.04805,-70.44197c10.41621,-27.08215 55.31908,-45.43051 77.65688,-63.30075c21.87141,-17.49713 50.9875,-49.95368 81.4163,-45.48979c9.62286,4.43529 16.80782,12.01309 25.26872,18.15081c5.57035,4.04086 13.39164,4.25117 19.6231,6.47959c13.86759,4.95915 25.79424,12.08652 38.07335,20.07522c30.01246,19.52611 53.63334,41.31462 87.84817,53.77657c5.51367,1.2047 11.2077,3.00952 16.79621,3.72165c4.25975,0.54281 8.16889,0.89678 12.37817,2.07131c3.38068,0.94332 8.22209,2.53691 9.65873,6.45705c0.83093,2.26734 0.27166,4.88434 1.06201,7.16614l0.74633,-0.4455c0,0 2.23607,1.11803 1.11803,3.3541c-1.11803,2.23607 -3.3541,1.11803 -3.3541,1.11803l-3.25367,-2.4455c-0.36534,-1.13004 -0.93452,-2.21352 -1.09601,-3.39011c-0.15626,-1.13845 0.4685,-2.33736 0.15802,-3.44375c-0.62798,-2.23778 -4.7754,-3.13706 -6.34127,-3.54295c-3.98967,-1.03417 -7.60052,-1.40744 -11.62183,-1.92869c-5.87666,-0.76175 -11.85022,-2.61067 -17.64299,-3.88957c-35.58947,-12.87494 -58.1799,-34.21741 -89.18253,-54.38773c-11.97205,-7.78911 -23.5315,-14.69057 -37.03625,-19.56042c-6.74017,-2.43053 -14.63529,-2.74651 -20.72634,-7.03818c-8.09326,-5.7024 -14.87449,-13.22461 -23.90285,-17.50604c-25.78541,-3.56048 -57.74791,29.30776 -76.86582,44.60209c-20.36462,16.2917 -66.99844,37.49182 -76.11363,61.19131c-6.94454,18.05581 -23.61791,52.42857 -26.79881,69.55987c-1.62226,8.73697 0.04593,19.55225 0.51297,28.42603c1.84335,35.02367 28.74429,57.70195 54.2438,77.93254c14.04331,5.02902 26.81175,12.65016 40.64159,17.83627c17.50731,6.56514 37.6206,9.89105 55.81341,14.43929c33.90704,8.47683 67.26136,18.60618 102.06911,22.01968c34.39765,3.37328 69.92259,5.49479 104.48561,3.92191c34.93842,-1.58996 69.87752,-2.88249 104.73317,-5.7877c34.06855,-2.83961 69.40524,-5.23795 101.90984,-16.65849c31.83582,-11.18556 60.15035,-26.6122 85.52342,-49.16718c26.05465,-23.15969 51.80036,-47.10253 14.4046,-75.20952c-8.45963,-6.39604 -20.4085,-11.67905 -30.62948,-14.48174c-2.87042,-0.7871 -5.86564,-1.30906 -8.84141,-1.24866c-1.93508,0.03927 -4.75169,1.83016 -5.80282,0.20498c-1.61466,-2.49647 19.62227,-45.16065 22.35364,-51.10444c8.36345,-18.19985 16.11385,-36.62025 23.75497,-55.09352c-13.00051,-1.39795 -25.9856,-2.91729 -38.95262,-4.42508c-12.116,-1.41499 -36.82,-5.51344 -58.9176,-10.24973c17.30362,23.09867 18.4578,56.23141 16.57379,84.05338c-6.37817,21.49793 -18.35253,55.51119 -42.7495,62.56629c-6.99161,2.02183 -17.37256,-1.02399 -24.26697,-2.38358c-33.92122,-6.6893 -68.31481,-22.6831 -85.62733,-53.86326c-15.42559,-28.08602 2.99975,-57.47232 2.80983,-86.18389c0,0 0,-2.5 2.5,-2.5c2.5,0 2.5,2.5 2.5,2.5c-0.15078,27.12324 -18.22192,57.46107 -3.43846,83.75672c16.58924,29.87751 49.74669,44.98046 82.22334,51.3849c6.03626,1.19036 16.06152,4.3019 22.13066,2.42766c22.22763,-6.86419 33.0289,-38.93854 38.99745,-58.59023c1.73416,-28.31671 0.77139,-63.01214 -19.58391,-84.92336c-8.91764,-2.04129 -17.0494,-4.15112 -23.27032,-6.17802l-0.08662,0.47643l-4.87646,-0.88663c-1.18845,-0.19326 -2.09567,-1.22442 -2.09567,-2.46747c0,-1.07692 0.68093,-1.9948 1.63573,-2.34658l3.39365,-1.34055l0.01933,0.04894l0.13509,-0.10416c1.0761,-0.27022 2.14907,-0.54909 3.21928,-0.83562c-22.1611,-3.63508 -61.728,6.86567 -77.4568,13.89319c-2.43915,1.0784 -4.84447,2.27969 -7.05954,3.7649l-2.26872,1.15594c0,0 -2.23607,1.11803 -3.3541,-1.11803zM393.09574,110.3968c1.12531,0.93545 2.20724,1.90074 3.2473,2.8941c0.41467,0.09315 0.81705,0.17824 1.20567,0.25365c21.63654,4.19857 43.43142,10.41767 65.30659,12.94967c13.43619,1.56235 26.89187,3.13773 40.36406,4.57685c5.02669,-12.18202 10.02492,-24.38068 15.13897,-36.54796c4.10232,-9.75996 8.12967,-19.61973 12.21277,-29.47849c-2.53369,0.71793 -5.06105,1.45127 -7.5804,2.20418c-33.57223,10.03308 -67.21936,19.59171 -101.02084,28.82247c-11.35502,3.09668 -22.40372,7.04671 -33.59878,10.59112c1.56054,1.2626 3.05946,2.6244 4.72467,3.7344zM382.43743,108.6169c-0.05019,-0.02701 -0.10062,-0.05384 -0.1513,-0.0805c-0.93865,0.27976 -1.87888,0.55511 -2.82096,0.82534c1.84253,0.23496 3.74857,0.61297 5.64466,1.05337c-0.84714,-0.66691 -1.72377,-1.2878 -2.6724,-1.79822zM245.61178,102.51725c9.95924,-0.62692 19.86021,-1.61692 29.7891,-2.60981c12.03084,-1.20308 68.61282,-13.5259 75.17103,-8.96922c1.05653,0.73408 -1.75457,-1.88698 -2.71348,-2.74466c-3.02433,-2.70508 -7.44018,-4.57712 -10.84391,-6.84593c-23.44802,-15.63201 -47.29951,-33.11545 -72.53254,-45.71156c0,0 -0.53475,-0.26738 -0.95048,-0.80213c-7.62883,20.50771 -14.38884,41.11141 -20.3491,62.7056c-0.48722,1.7555 -0.93687,3.52224 -1.35175,5.29899c1.32391,-0.12753 2.59831,-0.24682 3.78114,-0.32128z" fill="#000000" stroke-width="0.5"/></g></g></svg>