<svg version="1.1" xmlns="http://www.w3.org/2000/svg" xmlns:xlink="http://www.w3.org/1999/xlink" width="197.4786" height="209.49796" viewBox="0,0,197.4786,209.49796"><g transform="translate(-218.09703,-82.59919)"><g stroke-miterlimit="10"><g stroke="none"><path d="M225,275v-190h190v190z" fill="#ffea66" stroke-width="NaN"/><g fill="#fff091"><path d="M282.45968,275l-35.49731,-190h81.72043l35.49731,190z" stroke-width="NaN"/><path d="M372.35215,275l-35.49731,-190h23.49462l35.49731,190z" stroke-width="NaN"/></g></g><g fill="#ffea66" stroke="#ffea66" font-family="Handwriting" font-size="40" text-anchor="start"><g font-weight="normal"><text transform="translate(307.36031,162.74244) rotate(8.11082) scale(1.51919,1.51919)" font-size="40" xml:space="preserve" fill="#ffea66" stroke-width="12"><tspan x="0" dy="0">2</tspan></text><text transform="translate(307.36031,162.74244) rotate(8.11082) scale(1.51919,1.51919)" font-size="40" xml:space="preserve" fill="#ffea66" stroke-width="6"><tspan x="0" dy="0">2</tspan></text><text transform="translate(307.36031,162.74244) rotate(8.11082) scale(1.51919,1.51919)" font-size="40" xml:space="preserve" fill="#ffea66" stroke-width="1"><tspan x="0" dy="0">2</tspan></text></g><g font-weight="normal"><text transform="translate(240.87778,239.28327) rotate(-12.08514) scale(1.51919,1.51919)" font-size="40" xml:space="preserve" fill="#ffea66" stroke-width="12"><tspan x="0" dy="0">3</tspan></text><text transform="translate(240.87778,239.28327) rotate(-12.08514) scale(1.51919,1.51919)" font-size="40" xml:space="preserve" fill="#ffea66" stroke-width="7"><tspan x="0" dy="0">3</tspan></text><text transform="translate(240.87778,239.28327) rotate(-12.08514) scale(1.51919,1.51919)" font-size="40" xml:space="preserve" fill="#ffea66" stroke-width="1"><tspan x="0" dy="0">3</tspan></text></g><g font-weight="normal"><text transform="translate(296.75683,250.26546) rotate(13.58162) scale(1.51918,1.51918)" font-size="40" xml:space="preserve" fill="#ffea66" stroke-width="11"><tspan x="0" dy="0">4</tspan></text><text transform="translate(296.75683,250.26546) rotate(13.58162) scale(1.51918,1.51918)" font-size="40" xml:space="preserve" fill="#ffea66" stroke-width="7"><tspan x="0" dy="0">4</tspan></text><text transform="translate(296.75683,250.26546) rotate(13.58162) scale(1.51918,1.51918)" font-size="40" xml:space="preserve" fill="#ffea66" stroke-width="1"><tspan x="0" dy="0">4</tspan></text></g><g font-weight="normal"><text transform="translate(364.92231,223.50083) rotate(-9.49794) scale(1.51919,1.51919)" font-size="40" xml:space="preserve" fill="#ffea66" stroke-width="12"><tspan x="0" dy="0">5</tspan></text><text transform="translate(364.92231,223.50083) rotate(-9.49794) scale(1.51919,1.51919)" font-size="40" xml:space="preserve" fill="#ffea66" stroke-width="8"><tspan x="0" dy="0">5</tspan></text><text transform="translate(364.92231,223.50083) rotate(-9.49794) scale(1.51919,1.51919)" font-size="40" xml:space="preserve" fill="#ffea66" stroke-width="1"><tspan x="0" dy="0">5</tspan></text></g><g font-weight="400"><text transform="translate(244.43438,152.36156) rotate(-8.42772) scale(1.51919,1.51919)" font-size="40" xml:space="preserve" fill="#ffea66" stroke-width="10"><tspan x="0" dy="0">1</tspan></text><text transform="translate(244.43438,152.36156) rotate(-8.42772) scale(1.51919,1.51919)" font-size="40" xml:space="preserve" fill="#ffea66" stroke-width="6"><tspan x="0" dy="0">1</tspan></text><text transform="translate(244.43438,152.36156) rotate(-8.42772) scale(1.51919,1.51919)" font-size="40" xml:space="preserve" fill="#ffea66" stroke-width="1"><tspan x="0" dy="0">1</tspan></text></g></g><g font-family="Handwriting" font-size="40" text-anchor="start"><g fill="#ff9400" font-weight="normal"><text transform="translate(311.70961,158.1625) rotate(8.11084) scale(1.45777,1.45777)" font-size="40" xml:space="preserve" fill="#ff9400" stroke="#c47200" stroke-width="12"><tspan x="0" dy="0">2</tspan></text><text transform="translate(311.70961,158.1625) rotate(8.11084) scale(1.45777,1.45777)" font-size="40" xml:space="preserve" fill="#ff9400" stroke="#e48500" stroke-width="6"><tspan x="0" dy="0">2</tspan></text><text transform="translate(311.70961,158.1625) rotate(8.11084) scale(1.45777,1.45777)" font-size="40" xml:space="preserve" fill="#ff9400" stroke="none" stroke-width="1"><tspan x="0" dy="0">2</tspan></text></g><g fill="#ffdf00" font-weight="normal"><text transform="translate(247.91486,231.60889) rotate(-12.08512) scale(1.45777,1.45777)" font-size="40" xml:space="preserve" fill="#ffdf00" stroke="#b9a100" stroke-width="12"><tspan x="0" dy="0">3</tspan></text><text transform="translate(247.91486,231.60889) rotate(-12.08512) scale(1.45777,1.45777)" font-size="40" xml:space="preserve" fill="#ffdf00" stroke="#d7ba00" stroke-width="7"><tspan x="0" dy="0">3</tspan></text><text transform="translate(247.91486,231.60889) rotate(-12.08512) scale(1.45777,1.45777)" font-size="40" xml:space="preserve" fill="#ffdf00" stroke="none" stroke-width="1"><tspan x="0" dy="0">3</tspan></text></g><g fill="#3ef724" font-weight="normal"><text transform="translate(301.53481,242.14709) rotate(13.58168) scale(1.45777,1.45777)" font-size="40" xml:space="preserve" fill="#3ef724" stroke="#2db41b" stroke-width="11"><tspan x="0" dy="0">4</tspan></text><text transform="translate(301.53481,242.14709) rotate(13.58168) scale(1.45777,1.45777)" font-size="40" xml:space="preserve" fill="#3ef724" stroke="#34d220" stroke-width="7"><tspan x="0" dy="0">4</tspan></text><text transform="translate(301.53481,242.14709) rotate(13.58168) scale(1.45777,1.45777)" font-size="40" xml:space="preserve" fill="#3ef724" stroke="none" stroke-width="1"><tspan x="0" dy="0">4</tspan></text></g><g fill="#25d1f7" font-weight="normal"><text transform="translate(366.94446,216.46452) rotate(-9.49796) scale(1.45777,1.45777)" font-size="40" xml:space="preserve" fill="#25d1f7" stroke="#1b96b2" stroke-width="12"><tspan x="0" dy="0">5</tspan></text><text transform="translate(366.94446,216.46452) rotate(-9.49796) scale(1.45777,1.45777)" font-size="40" xml:space="preserve" fill="#25d1f7" stroke="#1faece" stroke-width="8"><tspan x="0" dy="0">5</tspan></text><text transform="translate(366.94446,216.46452) rotate(-9.49796) scale(1.45777,1.45777)" font-size="40" xml:space="preserve" fill="#25d1f7" stroke="none" stroke-width="1"><tspan x="0" dy="0">5</tspan></text></g><g fill="#ff0000" font-weight="400"><text transform="translate(251.32767,148.20129) rotate(-8.42778) scale(1.45777,1.45777)" font-size="40" xml:space="preserve" fill="#ff0000" stroke="#ae0000" stroke-width="10"><tspan x="0" dy="0">1</tspan></text><text transform="translate(251.32767,148.20129) rotate(-8.42778) scale(1.45777,1.45777)" font-size="40" xml:space="preserve" fill="#ff0000" stroke="#d00000" stroke-width="6"><tspan x="0" dy="0">1</tspan></text><text transform="translate(251.32767,148.20129) rotate(-8.42778) scale(1.45777,1.45777)" font-size="40" xml:space="preserve" fill="#ff0000" stroke="none" stroke-width="1"><tspan x="0" dy="0">1</tspan></text></g></g></g></g></svg>