<svg version="1.1" xmlns="http://www.w3.org/2000/svg" xmlns:xlink="http://www.w3.org/1999/xlink" width="441.18919" height="274.23506" viewBox="0,0,441.18919,274.23506"><defs><radialGradient cx="128.69383" cy="174.37345" r="106.26731" gradientUnits="userSpaceOnUse" id="color-1"><stop offset="0" stop-color="#ffffff"/><stop offset="1" stop-color="#ffffff" stop-opacity="0"/></radialGradient><radialGradient cx="174.96916" cy="181.63233" r="106.26731" gradientUnits="userSpaceOnUse" id="color-2"><stop offset="0" stop-color="#ffffff"/><stop offset="1" stop-color="#ffffff" stop-opacity="0"/></radialGradient><radialGradient cx="242.11375" cy="176.18817" r="106.26731" gradientUnits="userSpaceOnUse" id="color-3"><stop offset="0" stop-color="#ffffff"/><stop offset="1" stop-color="#ffffff" stop-opacity="0"/></radialGradient><radialGradient cx="290.2038" cy="172.55873" r="106.26731" gradientUnits="userSpaceOnUse" id="color-4"><stop offset="0" stop-color="#ffffff"/><stop offset="1" stop-color="#ffffff" stop-opacity="0"/></radialGradient><radialGradient cx="357.34839" cy="172.55873" r="106.26731" gradientUnits="userSpaceOnUse" id="color-5"><stop offset="0" stop-color="#ffffff"/><stop offset="1" stop-color="#ffffff" stop-opacity="0"/></radialGradient><radialGradient cx="191.30163" cy="231.53709" r="106.26731" gradientUnits="userSpaceOnUse" id="color-6"><stop offset="0" stop-color="#ffffff"/><stop offset="1" stop-color="#ffffff" stop-opacity="0"/></radialGradient><radialGradient cx="257.53886" cy="234.25917" r="106.26731" gradientUnits="userSpaceOnUse" id="color-7"><stop offset="0" stop-color="#ffffff"/><stop offset="1" stop-color="#ffffff" stop-opacity="0"/></radialGradient></defs><g transform="translate(-22.42652,-66.29142)"><g stroke-miterlimit="10"><g stroke="none" stroke-width="0"><path d="M22.42652,174.37345c0,-58.68982 47.5775,-106.26731 106.26731,-106.26731c58.68982,0 106.26731,47.5775 106.26731,106.26731c0,58.68982 -47.5775,106.26731 -106.26731,106.26731c-58.68982,0 -106.26731,-47.5775 -106.26731,-106.26731z" fill="url(#color-1)"/><path d="M68.70184,181.63233c0,-58.68982 47.5775,-106.26731 106.26731,-106.26731c58.68982,0 106.26731,47.5775 106.26731,106.26731c0,58.68982 -47.5775,106.26731 -106.26731,106.26731c-58.68982,0 -106.26731,-47.5775 -106.26731,-106.26731z" fill="url(#color-2)"/><path d="M135.84644,176.18817c0,-58.68982 47.5775,-106.26731 106.26731,-106.26731c58.68982,0 106.26731,47.5775 106.26731,106.26731c0,58.68982 -47.5775,106.26731 -106.26731,106.26731c-58.68982,0 -106.26731,-47.5775 -106.26731,-106.26731z" fill="url(#color-3)"/><path d="M183.93648,172.55873c0,-58.68982 47.5775,-106.26731 106.26731,-106.26731c58.68982,0 106.26731,47.5775 106.26731,106.26731c0,58.68982 -47.5775,106.26731 -106.26731,106.26731c-58.68982,0 -106.26731,-47.5775 -106.26731,-106.26731z" fill="url(#color-4)"/><path d="M251.08108,172.55873c0,-58.68982 47.5775,-106.26731 106.26731,-106.26731c58.68982,0 106.26731,47.5775 106.26731,106.26731c0,58.68982 -47.5775,106.26731 -106.26731,106.26731c-58.68982,0 -106.26731,-47.5775 -106.26731,-106.26731z" fill="url(#color-5)"/><path d="M85.03431,231.53709c0,-58.68982 47.5775,-106.26731 106.26731,-106.26731c58.68982,0 106.26731,47.5775 106.26731,106.26731c0,58.68982 -47.5775,106.26731 -106.26731,106.26731c-58.68982,0 -106.26731,-47.5775 -106.26731,-106.26731z" fill="url(#color-6)"/><path d="M151.27155,234.25917c0,-58.68982 47.5775,-106.26731 106.26731,-106.26731c58.68982,0 106.26731,47.5775 106.26731,106.26731c0,58.68982 -47.5775,106.26731 -106.26731,106.26731c-58.68982,0 -106.26731,-47.5775 -106.26731,-106.26731z" fill="url(#color-7)"/></g><g fill="#ff9400" font-family="Handwriting" font-weight="normal" font-size="40" text-anchor="start"><text transform="translate(143.47977,204.71116) scale(2.04997,2.04997)" font-size="40" xml:space="preserve" fill="#ff9400" stroke="#c47200" stroke-width="12"><tspan x="0" dy="0">2</tspan></text><text transform="translate(143.47977,204.71116) scale(2.04997,2.04997)" font-size="40" xml:space="preserve" fill="#ff9400" stroke="#e48500" stroke-width="6"><tspan x="0" dy="0">2</tspan></text><text transform="translate(143.47977,204.71116) scale(2.04997,2.04997)" font-size="40" xml:space="preserve" fill="#ff9400" stroke="none" stroke-width="1"><tspan x="0" dy="0">2</tspan></text></g><g fill="#ffdf00" font-family="Handwriting" font-weight="normal" font-size="40" text-anchor="start"><text transform="translate(208.11785,206.99603) scale(2.04997,2.04997)" font-size="40" xml:space="preserve" fill="#ffdf00" stroke="#b9a100" stroke-width="12"><tspan x="0" dy="0">3</tspan></text><text transform="translate(208.11785,206.99603) scale(2.04997,2.04997)" font-size="40" xml:space="preserve" fill="#ffdf00" stroke="#d7ba00" stroke-width="7"><tspan x="0" dy="0">3</tspan></text><text transform="translate(208.11785,206.99603) scale(2.04997,2.04997)" font-size="40" xml:space="preserve" fill="#ffdf00" stroke="none" stroke-width="1"><tspan x="0" dy="0">3</tspan></text></g><g fill="#3ef724" font-family="Handwriting" font-weight="normal" font-size="40" text-anchor="start"><text transform="translate(266.70463,203.56872) scale(2.04997,2.04997)" font-size="40" xml:space="preserve" fill="#3ef724" stroke="#2db41b" stroke-width="11"><tspan x="0" dy="0">4</tspan></text><text transform="translate(266.70463,203.56872) scale(2.04997,2.04997)" font-size="40" xml:space="preserve" fill="#3ef724" stroke="#34d220" stroke-width="7"><tspan x="0" dy="0">4</tspan></text><text transform="translate(266.70463,203.56872) scale(2.04997,2.04997)" font-size="40" xml:space="preserve" fill="#3ef724" stroke="none" stroke-width="1"><tspan x="0" dy="0">4</tspan></text></g><g fill="#25d1f7" font-family="Handwriting" font-weight="normal" font-size="40" text-anchor="start"><text transform="translate(320.32852,202.65298) rotate(12.36943) scale(2.45026,2.45026)" font-size="40" xml:space="preserve" fill="#25d1f7" stroke="#1b96b2" stroke-width="12"><tspan x="0" dy="0">5</tspan></text><text transform="translate(320.32852,202.65298) rotate(12.36943) scale(2.45026,2.45026)" font-size="40" xml:space="preserve" fill="#25d1f7" stroke="#1faece" stroke-width="8"><tspan x="0" dy="0">5</tspan></text><text transform="translate(320.32852,202.65298) rotate(12.36943) scale(2.45026,2.45026)" font-size="40" xml:space="preserve" fill="#25d1f7" stroke="none" stroke-width="1"><tspan x="0" dy="0">5</tspan></text></g><g fill="#ff0000" font-family="Handwriting" font-weight="400" font-size="40" text-anchor="start"><text transform="translate(101.7589,211.95987) rotate(-10.66083) scale(2.45026,2.45026)" font-size="40" xml:space="preserve" fill="#ff0000" stroke="#ae0000" stroke-width="10"><tspan x="0" dy="0">1</tspan></text><text transform="translate(101.7589,211.95987) rotate(-10.66083) scale(2.45026,2.45026)" font-size="40" xml:space="preserve" fill="#ff0000" stroke="#d00000" stroke-width="6"><tspan x="0" dy="0">1</tspan></text><text transform="translate(101.7589,211.95987) rotate(-10.66083) scale(2.45026,2.45026)" font-size="40" xml:space="preserve" fill="#ff0000" stroke="none" stroke-width="1"><tspan x="0" dy="0">1</tspan></text></g><g fill="#ffdf00" font-family="Handwriting" font-weight="normal" font-size="40" text-anchor="start"><text transform="translate(156.12798,247.06057) scale(0.75096,0.75096)" font-size="40" xml:space="preserve" fill="#ffdf00" stroke="#000000" stroke-width="5"><tspan x="0" dy="0">Productions</tspan></text><text transform="translate(156.12798,247.06057) scale(0.75096,0.75096)" font-size="40" xml:space="preserve" fill="#ffdf00" stroke="#ffdf00" stroke-width="1"><tspan x="0" dy="0">Productions</tspan></text></g></g></g></svg>