<svg version="1.1" xmlns="http://www.w3.org/2000/svg" xmlns:xlink="http://www.w3.org/1999/xlink" width="206.55638" height="208.96305" viewBox="0,0,206.55638,208.96305"><g transform="translate(-237.90424,-35.52459)"><g stroke="none" stroke-width="0.5" stroke-miterlimit="10"><path d="M239.83431,86.39985c0,-2.05877 1.69541,-2.42212 2.29386,-2.48626c-1.1702,-1.61474 -2.37954,-3.20111 -3.6325,-4.75549c0,0 -1.56174,-1.95217 0.39043,-3.51391c1.95217,-1.56174 3.51391,0.39043 3.51391,0.39043c1.79947,2.26436 3.51114,4.58871 5.14791,6.96354c2.04674,-0.82045 3.91803,-2.07071 6.15976,-3.19158c12.0936,-7.26458 23.76401,-10.47962 36.54444,-16.09048c4.74107,-2.08143 7.96325,-6.23544 12.88196,-7.97326c3.02759,-1.06967 7.25831,-1.38722 9.71359,1.45229c3.7012,4.28041 5.81956,24.01387 8.2552,30.53374c2.5531,12.7235 7.21561,24.82642 12.73584,36.49283c5.92847,12.52919 14.89496,10.78523 14.78144,-2.60796c0,-27.90011 1.04181,-68.33064 29.67678,-82.72718c10.89694,-6.07391 39.38805,-3.74112 48.85827,5.57017c9.2675,9.11197 13.04728,24.20558 15.10687,36.58397c3.22315,32.5285 5.07658,64.95749 -10.5613,94.61089c-16.17422,30.59938 -40.753,54.25457 -75.12357,62.87769c-16.80903,4.19555 -75.41452,14.56795 -80.89945,-8.69904c1.86999,-9.64003 9.31919,-16.88272 12.80429,-25.70377c6.88268,-17.42055 -5.28453,-39.8527 -12.82028,-54.91386c-9.91986,-19.87724 -17.87278,-41.76682 -30.22741,-60.51231c-0.77932,0.12356 -1.59804,0.19373 -2.47123,0.19953h-0.62882c0,0 -2.5,0 -2.5,-2.5zM250.31129,87.16141c11.97506,18.71839 19.9485,40.10629 29.82261,59.81515c8.3833,16.77859 20.21926,39.75158 12.98086,59.03087c-3.05385,8.13384 -10.60881,15.0457 -12.43843,23.70388c4.6985,16.91582 61.70035,7.21922 74.68819,3.96728c32.97305,-8.21227 56.47893,-31.01887 71.91355,-60.35931c15.12889,-28.68822 13.12617,-60.15344 10.02737,-91.62142c-3.90538,-23.39154 -11.80262,-39.45932 -37.24325,-41.09105c-6.83784,-0.43857 -13.46932,-0.80618 -19.40398,2.68708c-26.70997,13.33916 -27.03806,52.49494 -27.03806,78.31988c-0.07587,11.42472 -9.02163,24.3886 -19.5069,11.66795c-9.54063,-11.57461 -14.92976,-29.68791 -17.81898,-44.18268c-3.35704,-8.97263 -3.34236,-20.53082 -7.39059,-28.83064c-1.59651,-3.2732 -11.11349,4.95608 -11.86835,5.44866c-8.29572,5.41326 -18.87058,6.55734 -27.91121,10.39409c-4.56851,1.93883 -8.72737,5.51148 -13.01039,8.07848c-2.10521,1.0526 -3.93428,2.11989 -5.80244,2.97179z" fill="#000000"/><path d="M256.07137,84.16306c4.28301,-2.567 8.44597,-6.14528 13.01449,-8.0841c9.04063,-3.83675 19.62663,-4.99065 27.92235,-10.4039c0.75486,-0.49258 10.27836,-8.72541 11.87487,-5.45221c4.04824,8.29981 4.0787,19.94713 7.43574,28.91976c2.88921,14.49477 8.29648,32.59056 17.83711,44.16517c10.48527,12.72065 19.3668,-0.22418 19.44267,-11.6489c0,-25.82494 0.36701,-65.07272 27.07698,-78.41188c5.93467,-3.49326 12.57307,-3.12246 19.41091,-2.68389c25.44063,1.63172 33.35589,17.71658 37.26128,41.10811c3.0988,31.46798 5.10553,62.97865 -10.02335,91.66687c-15.43462,29.34044 -38.98128,52.17792 -71.95433,60.39019c-12.98783,3.25195 -70.02431,12.93952 -74.72281,-3.97629c1.82962,-8.65818 9.38283,-15.57134 12.43668,-23.70519c7.2384,-19.27929 -4.61644,-42.2862 -12.99974,-59.06478c-9.87411,-19.70886 -17.84152,-41.12655 -29.81658,-59.84494c1.86816,-0.8519 3.69855,-1.92141 5.80376,-2.97402z" fill="#ffffff"/><path d="M437.34775,81.67122c3.0988,31.46798 5.10553,62.97865 -10.02335,91.66687c-15.43462,29.34044 -38.98128,52.17792 -71.95433,60.39019c-12.98783,3.25195 -70.02431,12.93952 -74.72281,-3.97629c0.38271,-1.81106 1.01584,-3.54577 1.80584,-5.23126c4.17641,-0.72295 8.25607,-3.72352 12.23938,-4.87218c7.00342,-2.01956 13.59122,1.26099 20.09249,-0.9061c5.1129,-1.7043 10.03874,-8.07145 12.8403,-12.1236c10.54204,-15.24788 22.16223,-14.16161 33.71005,-26.37078c2.06369,-2.18188 12.5031,-21.56822 13.15465,-22.01772c3.82313,-2.63756 11.60236,1.90695 19.37576,-7.16202c6.89909,-8.04894 5.91418,-22.23774 7.95426,-31.93141c1.75891,-8.35765 5.99524,-15.01655 6.95442,-23.54724c0.87046,-7.74166 0.08556,-23.5381 0.13606,-25.02667c0.17916,-5.28121 6.61253,-14.3758 13.14429,-22.42073c8.85345,7.16878 12.85474,18.92482 15.293,33.52895z" fill="#ececec"/><path d="M269.38884,119.7273c0,-1.38071 1.11929,-2.5 2.5,-2.5c1.38071,0 2.5,1.11929 2.5,2.5c0,1.38071 -1.11929,2.5 -2.5,2.5c-1.38071,0 -2.5,-1.11929 -2.5,-2.5z" fill="#000000"/><path d="M323.46735,93.94569c0,-1.38071 1.11929,-2.5 2.5,-2.5c1.38071,0 2.5,1.11929 2.5,2.5c0,1.38071 -1.11929,2.5 -2.5,2.5c-1.38071,0 -2.5,-1.11929 -2.5,-2.5z" fill="#000000"/><path d="M299.67169,113.6656c2.39725,1.97654 5.66285,3.79006 8.45735,4.20125c1.15804,0.1704 1.50056,-2.00962 1.54938,-2.38524c0.2769,-2.13021 -0.23333,-4.30438 -0.04511,-6.44425c0.03487,-0.39639 0.68709,-0.81012 0.42983,-1.11371c-0.17194,-0.20291 -2.8858,-0.27005 -3.08655,-0.21027c-3.40643,1.01445 -4.55779,2.62643 -6.90956,4.9782l-0.16052,0.60791c0,0 -0.07828,0.15656 -0.23483,0.3661zM295.19382,111.85786c0.07683,-0.46696 0.24057,-0.79443 0.24057,-0.79443l1.09712,-1.90737c0.34116,-0.34116 3.93962,-3.95768 4.13911,-4.07532c1.65512,-0.97601 3.44026,-1.78462 5.30065,-2.26524c2.45066,-0.63311 6.67313,0.42742 8.23221,2.30501c0.562,0.67682 0.43464,6.90275 0.42983,7.68977c-0.02483,4.06711 -0.5031,9.69397 -6.04157,10.03511c-3.76661,0.23201 -6.05322,-1.81286 -8.98021,-3.44186c-1.78113,-0.99127 -3.51004,-2.14173 -4.96648,-3.56785c0,0 -1.76777,-1.76777 0,-3.53553c0.18358,-0.18358 0.36717,-0.32904 0.54877,-0.4423z" fill="#000000"/></g></g></svg>