<svg version="1.1" xmlns="http://www.w3.org/2000/svg" xmlns:xlink="http://www.w3.org/1999/xlink" width="206.55638" height="212.42724" viewBox="0,0,206.55638,212.42724"><g transform="translate(-237.90424,-29.33905)"><g stroke="none" stroke-width="0.5" stroke-miterlimit="10"><path d="M239.83431,86.32495c0,-2.05877 1.69541,-2.48792 2.29386,-2.57528c-1.1702,-1.56933 -2.37954,-3.10876 -3.6325,-4.61452c0,0 -1.56174,-1.89156 0.39043,-3.52906c1.95217,-1.6375 3.51391,0.25406 3.51391,0.25406c1.79947,2.19452 3.51114,4.45245 5.14791,6.76376c2.04674,-0.89988 3.91803,-2.22276 6.15976,-3.43063c12.0936,-7.73392 23.76401,-11.40187 36.54444,-17.50873c4.74107,-2.26543 7.96325,-6.54448 12.88196,-8.47319c3.02759,-1.18717 7.25831,-1.66891 9.71359,1.07532c3.7012,4.13677 5.81956,23.78802 8.2552,30.21337c2.5531,12.62442 7.21561,24.54639 12.73584,35.99857c5.92847,12.29911 14.89496,10.20717 14.78144,-3.18161c0,-27.90011 1.04181,-68.37107 29.67678,-83.8789c10.89694,-6.49681 39.38805,-5.26972 48.85827,3.67404c9.2675,8.75231 13.04728,23.69923 15.10687,35.99769c3.22315,32.40341 5.07658,64.76047 -10.5613,95.02076c-16.17422,31.22708 -40.753,55.83615 -75.12357,65.79315c-16.80903,4.84789 -75.41452,17.4947 -80.89945,-5.55943c1.86999,-9.7126 9.31919,-17.24439 12.80429,-26.20069c6.88268,-17.68766 -5.28453,-39.64761 -12.82028,-54.41632c-9.91986,-19.49226 -17.87278,-41.0732 -30.22741,-59.33922c-0.77932,0.1538 -1.59804,0.25575 -2.47123,0.29544l-0.62882,0.0244c0,0 -2.5,0.09702 -2.5,-2.40298zM250.31129,86.67991c11.97506,18.25365 19.9485,39.33211 29.82261,58.65777c8.3833,16.45324 20.21926,38.96689 12.98086,58.5271c-3.05385,8.25236 -10.60881,15.45742 -12.43843,24.1866c4.6985,16.73348 61.70035,4.8247 74.68819,1.06872c32.97305,-9.49191 56.47893,-33.21075 71.91355,-63.15019c15.12889,-29.27535 13.12617,-60.66285 10.02737,-92.01057c-3.90538,-23.23998 -11.80262,-39.00127 -37.24325,-39.64568c-6.83784,-0.1732 -13.46932,-0.28345 -19.40398,3.44013c-26.70997,14.37574 -27.03806,53.54425 -27.03806,79.36919c-0.07587,11.42766 -9.02163,24.73872 -19.5069,12.42499c-9.54063,-11.20435 -14.92976,-29.1085 -17.81898,-43.49115c-3.35704,-8.84235 -3.34236,-20.40111 -7.39059,-28.54382c-1.59651,-3.21124 -11.11349,5.38738 -11.86835,5.90926c-8.29572,5.73521 -18.87058,7.28968 -27.91121,11.47729c-4.56851,2.11613 -8.72737,5.85018 -13.01039,8.5834c-2.10521,1.1343 -3.93428,2.27257 -5.80244,3.19698z" fill="#000000"/><path d="M256.07137,83.45802c4.28301,-2.73322 8.44597,-6.47306 13.01449,-8.58918c9.04063,-4.18761 19.62663,-5.75234 27.92235,-11.48753c0.75486,-0.52188 10.27836,-9.1243 11.87487,-5.91306c4.04824,8.1427 4.0787,19.78884 7.43574,28.63119c2.88921,14.38264 8.29648,32.26858 17.83711,43.47293c10.48527,12.31373 19.3668,-0.97578 19.44267,-12.40345c0,-25.82494 0.36701,-65.08696 27.07698,-79.46271c5.93467,-3.72358 12.57307,-3.61041 19.41091,-3.4372c25.44063,0.6444 33.35589,16.42208 37.26128,39.66204c3.0988,31.34772 5.10553,62.78051 -10.02335,92.05586c-15.43462,29.93944 -38.98128,53.69074 -71.95433,63.18265c-12.98783,3.75599 -70.02431,15.65708 -74.72281,-1.07639c1.82962,-8.72919 9.38283,-15.93548 12.43668,-24.18784c7.2384,-19.5602 -4.61644,-42.10704 -12.99974,-58.56028c-9.87411,-19.32566 -17.84152,-40.43414 -29.81658,-58.68779c1.86816,-0.9244 3.69855,-2.06495 5.80376,-3.19926z" fill="#ffffff"/><path d="M437.34775,73.93106c3.0988,31.34772 5.10553,62.78051 -10.02335,92.05586c-15.43462,29.93944 -38.98128,53.69074 -71.95433,63.18265c-12.98783,3.75599 -70.02431,15.65708 -74.72281,-1.07639c0.38271,-1.82591 1.01584,-3.58519 1.80584,-5.30134c4.17641,-0.88503 8.25607,-4.04393 12.23938,-5.34718c7.00342,-2.29135 13.59122,0.73353 20.09249,-1.68587c5.1129,-1.90273 10.03874,-8.46104 12.8403,-12.62192c10.54204,-15.657 22.16223,-15.0217 33.71005,-27.67903c2.06369,-2.26197 12.5031,-22.05345 13.15465,-22.52824c3.82313,-2.78593 11.60236,1.45668 19.37576,-7.91397c6.89909,-8.31669 5.91418,-22.46726 7.95426,-32.24011c1.75891,-8.42591 5.99524,-15.24922 6.95442,-23.81713c0.87046,-7.77544 0.08556,-23.54142 0.13606,-25.03195c0.17916,-5.28816 6.61253,-14.63242 13.14429,-22.93084c8.85345,6.82519 12.85474,18.42594 15.293,32.93545z" fill="#ececec"/><path d="M269.38884,119.7273c0,-1.38071 1.11929,-2.5 2.5,-2.5c1.38071,0 2.5,1.11929 2.5,2.5c0,1.38071 -1.11929,2.5 -2.5,2.5c-1.38071,0 -2.5,-1.11929 -2.5,-2.5z" fill="#000000"/><path d="M323.46735,93.94569c0,-1.38071 1.11929,-2.5 2.5,-2.5c1.38071,0 2.5,1.11929 2.5,2.5c0,1.38071 -1.11929,2.5 -2.5,2.5c-1.38071,0 -2.5,-1.11929 -2.5,-2.5z" fill="#000000"/><path d="M299.67169,113.6656c2.39725,1.97654 5.66285,3.79006 8.45735,4.20125c1.15804,0.1704 1.50056,-2.00962 1.54938,-2.38524c0.2769,-2.13021 -0.23333,-4.30438 -0.04511,-6.44425c0.03487,-0.39639 0.68709,-0.81012 0.42983,-1.11371c-0.17194,-0.20291 -2.8858,-0.27005 -3.08655,-0.21027c-3.40643,1.01445 -4.55779,2.62643 -6.90956,4.9782l-0.16052,0.60791c0,0 -0.07828,0.15656 -0.23483,0.3661zM295.19382,111.85786c0.07683,-0.46696 0.24057,-0.79443 0.24057,-0.79443l1.09712,-1.90737c0.34116,-0.34116 3.93962,-3.95768 4.13911,-4.07532c1.65512,-0.97601 3.44026,-1.78462 5.30065,-2.26524c2.45066,-0.63311 6.67313,0.42742 8.23221,2.30501c0.562,0.67682 0.43464,6.90275 0.42983,7.68977c-0.02483,4.06711 -0.5031,9.69397 -6.04157,10.03511c-3.76661,0.23201 -6.05322,-1.81286 -8.98021,-3.44186c-1.78113,-0.99127 -3.51004,-2.14173 -4.96648,-3.56785c0,0 -1.76777,-1.76777 0,-3.53553c0.18358,-0.18358 0.36717,-0.32904 0.54877,-0.4423z" fill="#000000"/></g></g></svg>