<svg version="1.1" xmlns="http://www.w3.org/2000/svg" xmlns:xlink="http://www.w3.org/1999/xlink" width="496.50238" height="336.69167" viewBox="0,0,496.50238,336.69167"><g transform="translate(-200.02452,-1.03922)"><g stroke="none" stroke-miterlimit="10"><path d="M247.36171,177.71471c-11.42305,-22.71674 -22.40156,-45.23526 -30.7072,-68.81265c-8.32707,-23.68174 -12.38441,-48.53751 -12.39471,-72.8644c-0.00134,-3.18003 -0.79261,-21.18991 0.79523,-22.22263c2.33413,-1.5181 6.08373,-1.24637 9.12559,-1.86955c48.74508,-3.20165 98.16272,0.01976 147.05861,-1.22234c48.67234,-1.23364 95.98061,-3.04842 144.28945,-7.3769c3.76986,-0.33633 17.35897,-3.36739 20.0549,-1.91589c2.10256,1.13203 1.35324,20.67849 1.35324,22.96966c0,20.65894 2.62998,42.31757 -5.41567,62.30204c-8.10662,20.10098 -15.95,41.85059 -19.875,62.55633c-1.22664,6.47093 -1.28789,12.88887 -2.20044,19.36557c-0.27247,1.93386 -2.58433,10.49747 -0.47462,9.30022c45.3481,-9.299 80.58194,-34.82893 127.29377,-42.3598c71.31424,-11.49726 82.15367,18.82363 59.92353,59.40177c-18.5808,33.90798 -48.11684,59.49265 -88.29973,81.81033c-37.1148,20.54432 -85.42269,32.86014 -131.22663,38.51338c-12.99742,1.59264 -25.42598,5.2228 -38.19553,7.53269c-33.28648,6.02122 -67.18685,10.36955 -101.31997,12.81618c-27.62957,2.09121 -96.27792,5.90248 -118.36546,-8.18687c-7.01525,-4.47494 -8.70036,-12.86731 -8.75174,-19.05186c0,-10.77765 -0.47304,-29.6315 7.96867,-38.85779c16.85551,-18.42205 41.83444,-16.78748 59.57674,-27.09231c2.66039,-1.54517 3.00627,-4.40494 4.90952,-6.43665c1.19705,-1.2471 2.77719,-2.34729 3.59114,-3.74131c0.88137,-1.5095 0.60489,-3.26628 1.39639,-4.80066c0.68861,-1.33491 2.49755,-2.32168 2.98851,-3.69986c0.50335,-1.41293 -0.14838,-2.91425 -0.11316,-4.37142c0.01653,-0.68394 0.67701,-1.42384 0.26815,-2.04329c-1.55285,-2.3527 -4.06708,-1.70093 -6.74765,-2.71092c-4.27253,-1.60982 -7.67778,-4.18138 -11.64373,-6.14699c-2.12556,-1.05347 -5.08846,-1.35251 -6.71491,-2.78532c-0.99057,-0.87264 0.31881,-2.31342 -0.25723,-3.35677c-0.39027,-0.7069 -1.83343,-0.86065 -2.42138,-1.49493c-1.35374,-1.46045 -2.54474,-3.02716 -3.31043,-4.68867c-2.05904,-4.46794 -2.62009,-9.96232 -2.98569,-14.638l-0.00514,-2.13511c0,0 0,-0.95568 0.8326,-1.68528zM256.04546,194.20457c0.05684,0.1416 0.11502,0.28239 0.17456,0.42231c0.95329,2.24038 4.29585,3.6493 5.54086,5.8164c0.46984,0.81781 -1.03055,1.95128 -0.25723,2.64323c1.01692,0.90992 3.20599,0.61579 4.59094,1.23446c3.84407,1.71717 6.8433,4.33957 10.86845,5.83323c1.41731,0.52594 3.24187,0.44788 4.53154,1.11916c6.38171,3.32174 7.61144,8.35332 5.7848,13.7552c-0.52297,1.54654 -2.44151,2.69863 -3.20805,4.19315c-0.81904,1.5969 -0.56369,3.42169 -1.49987,4.98583c-1.00511,1.6793 -2.8167,3.0528 -4.22505,4.57919c-2.29989,2.44087 -3.20044,5.6702 -6.36316,7.56335c-1.70361,1.01975 -4.37578,0.69878 -6.41546,1.33618c-18.01224,5.62881 -40.14176,12.69193 -51.70558,24.62724c-6.12812,6.32498 -6.78745,28.01732 -6.78745,36.08648c-0.04465,4.58365 0.97945,11.9962 6.37446,15.30689c20.83334,12.78456 87.1563,8.91225 112.96975,6.95857c33.79308,-2.42235 67.35192,-6.72667 100.30737,-12.688c12.95722,-2.34384 25.54304,-5.97551 38.72852,-7.61366c44.57277,-5.50129 92.03857,-17.42699 128.09165,-37.52485c39.18684,-21.76447 67.95462,-46.61631 86.07552,-79.68504c20.05052,-36.58043 14.13521,-63.34325 -51.79641,-52.71377c-46.76461,7.53938 -82.27304,33.27135 -127.87733,42.4357c-2.40226,-0.23602 -5.43694,0.46861 -7.20679,-0.70807c-4.8169,-3.20249 0.05931,-19.67062 0.38292,-23.90878c1.83199,-23.9933 12.35569,-49.87487 21.6224,-72.93055c7.85012,-19.49876 5.14459,-40.7654 5.14459,-60.92844c0,-4.66667 0,-9.33333 0,-14c0,-1.70707 3.49136,-4.24826 1.35324,-5.03034c-0.06421,-0.02349 -12.54751,2.7317 -14.83379,2.93723c-48.51775,4.34382 -96.03968,6.17415 -144.92017,7.41306c-48.63958,1.23008 -97.80382,-1.96302 -146.29553,1.17341c-8.09608,0.15808 -3.89237,13.35566 -3.88993,19.1428c0.01005,23.9142 3.9685,48.37587 12.18435,71.65322c10.13626,28.77406 24.28652,55.9555 38.33423,83.86977c0,0 1.18481,2.35435 -2.13266,3.1952c-1.781,0.45141 -2.94732,-0.01807 -3.64568,-0.54977z" fill="#000000" stroke-width="0.5"/><path d="M256.11474,194.1955c0.69836,0.5317 1.7262,1.01965 3.5072,0.56824c3.31748,-0.84085 2.1324,-3.19625 2.1324,-3.19625c-14.04771,-27.91427 -28.19426,-55.12203 -38.33053,-83.89609c-8.21585,-23.27735 -12.16381,-47.75208 -12.17385,-71.66628c-0.00244,-5.78714 -4.20273,-18.98755 3.89334,-19.14563c48.49171,-3.13643 97.68153,0.04412 146.32111,-1.18596c48.88049,-1.23891 96.44618,-3.07129 144.96394,-7.41511c2.28628,-0.20553 14.77332,-2.95996 14.83753,-2.93647c2.13812,0.78208 -1.353,3.32332 -1.353,5.03039c0,4.66667 0.00186,9.33377 0.00186,14.00044c0,20.16304 2.71674,41.43328 -5.13338,60.93204c-9.2667,23.05568 -19.75823,48.9647 -21.59023,72.958c-0.32361,4.23816 -5.20146,20.74164 -0.38457,23.94413c1.76985,1.17668 4.67357,0.43517 7.07583,0.67119c45.60429,-9.16435 81.24737,-34.88963 128.01198,-42.42901c65.93162,-10.62948 71.8479,16.15157 51.79738,52.732c-18.12091,33.06873 -46.90876,57.9488 -86.0956,79.71327c-36.05308,20.09786 -83.5625,32.03789 -128.13527,37.53918c-13.18548,1.63815 -25.78455,5.26974 -38.74177,7.61358c-32.95545,5.96133 -66.54032,10.25999 -100.33339,12.68234c-25.81345,1.95368 -92.1548,5.81592 -112.98814,-6.96864c-5.395,-3.31069 -6.4221,-10.72569 -6.37744,-15.30934c0,-8.06916 0.65411,-29.7667 6.78223,-36.09168c11.56382,-11.93531 33.81348,-19.05069 51.82572,-24.6795c2.03968,-0.6374 4.59164,-0.26426 6.29525,-1.28401c3.16272,-1.89315 4.06221,-5.12373 6.3621,-7.5646c1.40835,-1.52639 3.21931,-2.90069 4.22442,-4.57999c0.93618,-1.56414 0.67985,-3.39022 1.4989,-4.98712c0.76654,-1.49452 2.68442,-2.64755 3.20739,-4.19409c1.82664,-5.40188 0.59383,-10.43866 -5.78788,-13.7604c-1.28968,-0.67128 -3.11461,-0.594 -4.53192,-1.11994c-4.02515,-1.49366 -7.02561,-4.11891 -10.86967,-5.83608c-1.38495,-0.61867 -3.57428,-0.32526 -4.5912,-1.23518c-0.77332,-0.69195 0.72676,-1.82632 0.25692,-2.64413c-1.24501,-2.1671 -4.58826,-3.57833 -5.54155,-5.81871c-0.05953,-0.13992 -0.11776,-0.28087 -0.1746,-0.42247z" fill="#ffffff" stroke-width="0.25"/><path d="M679.69173,193.16115c-18.12091,33.06873 -46.90876,57.9488 -86.0956,79.71327c-36.05308,20.09786 -83.5625,32.03789 -128.13527,37.53918c-13.18548,1.63815 -25.78455,5.26974 -38.74177,7.61358c-32.95545,5.96133 -66.54032,10.25999 -100.33339,12.68234c-25.81345,1.95368 -92.1548,5.81592 -112.98814,-6.96864c-5.395,-3.31069 -6.4221,-10.72569 -6.37744,-15.30934c0,-2.37935 0.05687,-5.94367 0.29419,-9.94941c2.56673,0.42784 5.16696,0.90965 8.04393,1.15287c32.33606,2.73362 67.98893,0.41683 92.08359,-16.36752c21.28572,-15.10607 35.12346,-0.6685 56.17321,-4.75901c16.99816,-3.30318 26.55971,-13.49218 42.88756,-16.60359c27.17381,-5.17821 51.25346,6.93426 82.55311,-0.49369c13.7697,-4.88605 44.92294,-8.92267 56.05427,-14.80524c9.54817,-5.04592 24.7094,-28.47752 27.08795,-29.61528c5.93343,-2.83822 18.69109,-1.78193 25.06879,-3.72118c10.83021,-3.29311 18.73411,-11.18669 28.13625,-16.04063c3.03725,-4.12722 6.70293,-8.05066 9.11177,-12.38167c2.46824,-4.43778 2.4505,-9.40403 4.43223,-13.963c2.02743,-4.6641 4.7363,-9.17991 6.49365,-13.89887c1.20108,-3.2252 3.1436,-14.00946 4.14049,-18.83252c45.30806,-1.61002 47.69251,22.93171 30.1106,55.00837z" fill="#ececec" stroke-width="0.25"/><path d="M253.57453,149.39999c0,-1.38071 1.57717,-2.5 3.52271,-2.5c1.94554,0 3.52271,1.11929 3.52271,2.5c0,1.38071 -1.57717,2.5 -3.52271,2.5c-1.94554,0 -3.52271,-1.11929 -3.52271,-2.5z" fill="#000000" stroke-width="0.5"/><path d="M394.48294,111.39999c0,-1.38071 1.57717,-2.5 3.52271,-2.5c1.94554,0 3.52271,1.11929 3.52271,2.5c0,1.38071 -1.57717,2.5 -3.52271,2.5c-1.94554,0 -3.52271,-1.11929 -3.52271,-2.5z" fill="#000000" stroke-width="0.5"/><path d="M303.07324,176.19056c-1.11398,-2.37171 2.22796,-3.16228 2.22796,-3.16228l3.48923,-0.75492c1.61296,-1.14469 1.7778,-3.02433 3.18492,-4.29846c1.39697,-1.26494 3.96675,-1.72573 5.27739,-3.03639c1.24229,-1.2423 1.15758,-2.94987 2.08319,-4.3243c1.93638,-2.87529 5.42717,-5.07825 8.12581,-7.62537c3.99425,-3.76997 3.94356,-8.14519 9.38766,-11.6156c1.87958,-1.19816 13.01295,-5.63554 15.22074,-5.44098c2.7501,0.24236 4.43039,2.39394 6.32422,3.82971c3.23971,2.45612 5.18856,5.76274 6.38763,9.01767c2.57213,6.99017 7.01952,14.61832 3.57985,22.06665c-2.71116,5.87082 -9.65262,7.6286 -16.41155,10.52215c-22.35019,9.56832 -45.34898,3.89268 -66.83772,-3.7324c0,0 -3.15081,-1.11803 -1.5754,-3.3541c1.5754,-2.23607 4.72621,-1.11803 4.72621,-1.11803c19.1947,6.81105 39.94704,12.58879 60.03862,3.92709c4.52674,-1.95153 11.72276,-3.616 13.32471,-7.71227c2.62953,-6.72383 -1.33515,-13.06805 -3.66982,-19.35842c-0.83979,-2.52928 -2.70898,-4.89247 -4.88504,-6.98233c-0.7383,-0.70906 -0.88947,-2.12698 -2.13028,-2.17029c-1.62541,-0.05673 -2.6567,1.33606 -4.0304,1.95526c-3.38717,1.52678 -7.02056,3.17873 -9.04478,5.63752c-1.90495,2.31394 -2.37185,5.18124 -4.58894,7.35065c-2.4233,2.3712 -5.81457,4.30129 -7.57836,6.94956c-1.09014,1.63679 -1.24834,3.59531 -2.70888,5.07965c-1.28024,1.30109 -3.8408,1.73909 -5.22621,2.98474c-0.88304,0.79396 -0.52512,2.04346 -1.30681,2.88924c-1.02456,1.10854 -2.64185,1.87487 -3.96277,2.8123l-4.96527,1.24508c0,0 -3.34194,0.79057 -4.45592,-1.58114z" fill="#000000" stroke-width="0.5"/></g></g></svg>