<svg version="1.1" xmlns="http://www.w3.org/2000/svg" xmlns:xlink="http://www.w3.org/1999/xlink" width="761" height="641" viewBox="0,0,761,641"><g transform="translate(20.89999,247.10001)"><g stroke-miterlimit="10"><path d="M-18.39999,391.39999v-122h292v-514h464v516h-65v120z" fill="#ffffff" stroke="#000000" stroke-width="5"/><text transform="translate(299.20252,29.39999) scale(0.5,0.5) skewX(-19.14342)" font-size="40" xml:space="preserve" fill="#e8e8e8" stroke="none" stroke-width="1" font-family="Archivo Black" font-weight="normal" text-anchor="start"><tspan x="0" dy="0">More Features will be</tspan><tspan x="0" dy="46.150000000000006px">added soon!!</tspan></text><text transform="translate(298.19191,73.03666) scale(0.24767,0.24767) skewX(-19.14342)" font-size="40" xml:space="preserve" fill="#e8e8e8" stroke="none" stroke-width="1" font-family="Archivo Black" font-weight="normal" text-anchor="start"><tspan x="0" dy="0">e.g. Link sharing, Screen Sharing</tspan></text><g><g stroke="none"><path d="M580.41121,354.5415v-52.58879h52.58879v52.58879z" fill="#ffea66" stroke-width="NaN"/><g fill="#fff091"><path d="M596.31508,354.5415l-9.82506,-52.58879h22.61883l9.82506,52.58879z" stroke-width="NaN"/><path d="M621.1958,354.5415l-9.82506,-52.58879h6.50291l9.82506,52.58879z" stroke-width="NaN"/></g></g><g fill="#ffea66" stroke="#ffea66" font-family="Handwriting" font-size="40" text-anchor="start"><g font-weight="normal"><text transform="translate(603.20715,323.4705) rotate(8.11082) scale(0.42049,0.42049)" font-size="40" xml:space="preserve" fill="#ffea66" stroke-width="12"><tspan x="0" dy="0">2</tspan></text><text transform="translate(603.20715,323.4705) rotate(8.11082) scale(0.42049,0.42049)" font-size="40" xml:space="preserve" fill="#ffea66" stroke-width="6"><tspan x="0" dy="0">2</tspan></text><text transform="translate(603.20715,323.4705) rotate(8.11082) scale(0.42049,0.42049)" font-size="40" xml:space="preserve" fill="#ffea66" stroke-width="1"><tspan x="0" dy="0">2</tspan></text></g><g font-weight="normal"><text transform="translate(584.80591,344.65571) rotate(-12.08514) scale(0.42049,0.42049)" font-size="40" xml:space="preserve" fill="#ffea66" stroke-width="12"><tspan x="0" dy="0">3</tspan></text><text transform="translate(584.80591,344.65571) rotate(-12.08514) scale(0.42049,0.42049)" font-size="40" xml:space="preserve" fill="#ffea66" stroke-width="7"><tspan x="0" dy="0">3</tspan></text><text transform="translate(584.80591,344.65571) rotate(-12.08514) scale(0.42049,0.42049)" font-size="40" xml:space="preserve" fill="#ffea66" stroke-width="1"><tspan x="0" dy="0">3</tspan></text></g><g font-weight="normal"><text transform="translate(600.27229,347.69539) rotate(13.58162) scale(0.42048,0.42048)" font-size="40" xml:space="preserve" fill="#ffea66" stroke-width="11"><tspan x="0" dy="0">4</tspan></text><text transform="translate(600.27229,347.69539) rotate(13.58162) scale(0.42048,0.42048)" font-size="40" xml:space="preserve" fill="#ffea66" stroke-width="7"><tspan x="0" dy="0">4</tspan></text><text transform="translate(600.27229,347.69539) rotate(13.58162) scale(0.42048,0.42048)" font-size="40" xml:space="preserve" fill="#ffea66" stroke-width="1"><tspan x="0" dy="0">4</tspan></text></g><g font-weight="normal"><text transform="translate(619.13934,340.2874) rotate(-9.49794) scale(0.42049,0.42049)" font-size="40" xml:space="preserve" fill="#ffea66" stroke-width="12"><tspan x="0" dy="0">5</tspan></text><text transform="translate(619.13934,340.2874) rotate(-9.49794) scale(0.42049,0.42049)" font-size="40" xml:space="preserve" fill="#ffea66" stroke-width="8"><tspan x="0" dy="0">5</tspan></text><text transform="translate(619.13934,340.2874) rotate(-9.49794) scale(0.42049,0.42049)" font-size="40" xml:space="preserve" fill="#ffea66" stroke-width="1"><tspan x="0" dy="0">5</tspan></text></g><g font-weight="400"><text transform="translate(585.79032,320.59725) rotate(-8.42772) scale(0.42049,0.42049)" font-size="40" xml:space="preserve" fill="#ffea66" stroke-width="10"><tspan x="0" dy="0">1</tspan></text><text transform="translate(585.79032,320.59725) rotate(-8.42772) scale(0.42049,0.42049)" font-size="40" xml:space="preserve" fill="#ffea66" stroke-width="6"><tspan x="0" dy="0">1</tspan></text><text transform="translate(585.79032,320.59725) rotate(-8.42772) scale(0.42049,0.42049)" font-size="40" xml:space="preserve" fill="#ffea66" stroke-width="1"><tspan x="0" dy="0">1</tspan></text></g></g><g font-family="Handwriting" font-size="40" text-anchor="start"><g fill="#ff9400" font-weight="normal"><text transform="translate(604.41097,322.20285) rotate(8.11084) scale(0.40349,0.40349)" font-size="40" xml:space="preserve" fill="#ff9400" stroke="#c47200" stroke-width="12"><tspan x="0" dy="0">2</tspan></text><text transform="translate(604.41097,322.20285) rotate(8.11084) scale(0.40349,0.40349)" font-size="40" xml:space="preserve" fill="#ff9400" stroke="#e48500" stroke-width="6"><tspan x="0" dy="0">2</tspan></text><text transform="translate(604.41097,322.20285) rotate(8.11084) scale(0.40349,0.40349)" font-size="40" xml:space="preserve" fill="#ff9400" stroke="none" stroke-width="1"><tspan x="0" dy="0">2</tspan></text></g><g fill="#ffdf00" font-weight="normal"><text transform="translate(586.75366,342.53157) rotate(-12.08512) scale(0.40349,0.40349)" font-size="40" xml:space="preserve" fill="#ffdf00" stroke="#b9a100" stroke-width="12"><tspan x="0" dy="0">3</tspan></text><text transform="translate(586.75366,342.53157) rotate(-12.08512) scale(0.40349,0.40349)" font-size="40" xml:space="preserve" fill="#ffdf00" stroke="#d7ba00" stroke-width="7"><tspan x="0" dy="0">3</tspan></text><text transform="translate(586.75366,342.53157) rotate(-12.08512) scale(0.40349,0.40349)" font-size="40" xml:space="preserve" fill="#ffdf00" stroke="none" stroke-width="1"><tspan x="0" dy="0">3</tspan></text></g><g fill="#3ef724" font-weight="normal"><text transform="translate(601.59475,345.44836) rotate(13.58168) scale(0.40349,0.40349)" font-size="40" xml:space="preserve" fill="#3ef724" stroke="#2db41b" stroke-width="11"><tspan x="0" dy="0">4</tspan></text><text transform="translate(601.59475,345.44836) rotate(13.58168) scale(0.40349,0.40349)" font-size="40" xml:space="preserve" fill="#3ef724" stroke="#34d220" stroke-width="7"><tspan x="0" dy="0">4</tspan></text><text transform="translate(601.59475,345.44836) rotate(13.58168) scale(0.40349,0.40349)" font-size="40" xml:space="preserve" fill="#3ef724" stroke="none" stroke-width="1"><tspan x="0" dy="0">4</tspan></text></g><g fill="#25d1f7" font-weight="normal"><text transform="translate(619.69904,338.33986) rotate(-9.49796) scale(0.40349,0.40349)" font-size="40" xml:space="preserve" fill="#25d1f7" stroke="#1b96b2" stroke-width="12"><tspan x="0" dy="0">5</tspan></text><text transform="translate(619.69904,338.33986) rotate(-9.49796) scale(0.40349,0.40349)" font-size="40" xml:space="preserve" fill="#25d1f7" stroke="#1faece" stroke-width="8"><tspan x="0" dy="0">5</tspan></text><text transform="translate(619.69904,338.33986) rotate(-9.49796) scale(0.40349,0.40349)" font-size="40" xml:space="preserve" fill="#25d1f7" stroke="none" stroke-width="1"><tspan x="0" dy="0">5</tspan></text></g><g fill="#ff0000" font-weight="400"><text transform="translate(587.69827,319.44576) rotate(-8.42778) scale(0.40349,0.40349)" font-size="40" xml:space="preserve" fill="#ff0000" stroke="#ae0000" stroke-width="10"><tspan x="0" dy="0">1</tspan></text><text transform="translate(587.69827,319.44576) rotate(-8.42778) scale(0.40349,0.40349)" font-size="40" xml:space="preserve" fill="#ff0000" stroke="#d00000" stroke-width="6"><tspan x="0" dy="0">1</tspan></text><text transform="translate(587.69827,319.44576) rotate(-8.42778) scale(0.40349,0.40349)" font-size="40" xml:space="preserve" fill="#ff0000" stroke="none" stroke-width="1"><tspan x="0" dy="0">1</tspan></text></g></g></g></g></g></svg>