<svg version="1.1" xmlns="http://www.w3.org/2000/svg" xmlns:xlink="http://www.w3.org/1999/xlink" width="251.33738" height="220.32465" viewBox="0,0,251.33738,220.32465"><g transform="translate(-194.33131,-60.40538)"><g stroke="none" stroke-width="0.5" stroke-miterlimit="10"><path d="M426.57854,66.74927c1.8935,0.01257 3.79696,0.25609 5.6369,0.70346l2.73143,2.92507c0,0 0.66427,0.9964 0.3837,2.06972c0.04114,0.24121 0.04115,0.40297 0.04115,0.40297c-0.03402,27.91694 5.7104,56.22799 8.09071,84.02938c2.90109,33.88399 2.98674,68.45759 -0.01405,102.33518c-0.27882,4.33794 0.45194,16.66749 -3.44305,19.71443c-6.73535,5.26887 -14.8189,-2.35789 -20.48128,-5.87796c-17.87731,-11.11358 -36.01087,-6.25522 -56.08704,-6.05326c-14.44656,-0.01205 -26.70212,5.29981 -40.78701,7.44948c-9.14493,1.39573 -16.96635,-1.17335 -25.73451,-2.80739c-8.62468,-1.6073 -16.62076,2.65073 -24.76832,4.03033c-11.1706,-0.01291 -19.19255,-6.89893 -30.00983,-8.70828c-20.39703,-3.4117 -40.04562,12.01979 -47.60056,-14.26638c-1.31628,-15.16615 3.6226,-46.11307 16.82824,-55.27679c6.00999,-4.17049 15.57103,-4.0172 22.45977,-6.32108c17.53991,-5.82142 37.87764,-6.96506 56.25906,-5.88997c3.54041,0.20707 25.88659,0.86359 25.51396,-1.47348c8.4722,-31.06818 -3.7508,-63.86267 0.38141,-95.10577c0.5519,-4.16947 0.16034,-11.71528 1.75914,-15.46504c7.43882,-17.4467 64.59665,-12.79898 80.73976,-10.1369c4.98815,0.4988 10.03401,1.11147 14.976,1.95834c2.07816,0.35612 3.93047,1.55459 5.96896,2.09323c1.75184,0.4629 3.62352,-0.06688 5.43548,-0.06688h0.57596c0.58774,-0.26239 1.14402,-0.2624 1.14402,-0.2624z" fill="#ffffff"/><path d="M443.44837,259.21504c-0.27882,4.33794 0.45194,16.66749 -3.44305,19.71443c-6.73535,5.26887 -14.8189,-2.35789 -20.48128,-5.87796c-17.87731,-11.11358 -36.01087,-6.25522 -56.08704,-6.05326c-14.44656,-0.01205 -26.70212,5.29981 -40.78701,7.44948c-9.14493,1.39573 -16.96635,-1.17335 -25.73451,-2.80739c-8.62468,-1.6073 -16.62076,2.65073 -24.76832,4.03033c-11.1706,-0.01291 -19.19255,-6.89893 -30.00983,-8.70828c-20.39703,-3.4117 -40.04562,12.01979 -47.60056,-14.26638c-0.26095,-3.00663 -0.27606,-6.63347 -0.02966,-10.58785c4.78021,2.29039 9.45696,5.48085 14.42993,5.09831c8.36236,-0.64326 17.99698,-6.75347 26.32564,-8.86578c4.25286,-1.07861 15.49585,12.00988 23.35113,12.00988c7.11161,0 13.70205,-5.40949 21.0883,-4.46405c15.10317,1.93321 26.63848,8.33164 42.56701,6.09401c9.52757,-1.33843 17.96432,-9.57835 26.95831,-9.86692c20.42304,-0.65528 33.9238,17.64688 54.33283,4.82922c12.80384,-8.04131 26.7064,-9.54324 41.36729,-9.04138c-0.35997,7.12649 -0.85222,14.23523 -1.4792,21.31359z" fill="#ececec"/><path d="M429.36184,69.51167c0,2.5 -2.5,2.5 -2.5,2.5h-2.00329c-0.32371,0 -6.20951,0.02293 -6.58424,-0.06688c-1.96072,-0.4699 -3.70503,-1.7155 -5.69553,-2.03669c-4.88924,-0.78894 -9.83355,-1.43215 -14.76078,-1.92489c-12.18563,-2.05378 -70.87888,-6.60357 -75.51664,7.22492c-1.27071,3.78889 -0.82674,10.00744 -1.36539,14.07691c-4.1692,31.47201 8.05293,64.35432 -0.50063,95.71387c-2.46236,6.37773 -13.74338,5.56422 -20.3867,5.82599c-21.95569,0.86514 -43.20236,-2.16331 -64.64273,5.01667c-6.26596,2.08213 -15.97503,1.98628 -21.35727,5.79643c-11.17341,7.9098 -15.76366,37.26198 -14.59735,50.13745c0.81516,2.78688 1.21861,8.95995 4.22202,10.51865c7.90297,4.10145 29.49102,-1.89083 39.30818,-0.25992c10.25671,1.70392 18.36739,8.66808 28.75326,8.65354c8.66431,-1.41419 16.77202,-5.62245 25.98163,-3.98281c8.25818,1.47025 15.5582,4.12158 24.17767,2.80031c14.33154,-2.19688 26.79123,-7.49525 41.51777,-7.50689c15.37785,-0.15496 32.89224,-4.50233 47.61585,0.82027c4.64469,1.67906 23.38966,14.70319 25.39461,12.62349c2.55882,-2.65422 1.8157,-13.11273 2.04061,-16.608c2.97475,-33.61139 2.89606,-67.90979 0.01774,-101.52769c-2.39431,-27.96489 -8.07776,-56.37459 -8.10894,-84.45591c0,0 0,-2.5 2.5,-2.5c2.5,0 2.5,2.5 2.5,2.5c-0.03403,27.91694 5.7104,56.22799 8.09071,84.02938c2.9011,33.88399 2.98674,68.45759 -0.01405,102.33518c-0.27883,4.33794 0.45195,16.66748 -3.44304,19.71442c-6.73535,5.26888 -14.8189,-2.35789 -20.48129,-5.87796c-17.87731,-11.11357 -36.01087,-6.25522 -56.08704,-6.05326c-14.44656,-0.01205 -26.70212,5.29981 -40.787,7.44948c-9.14493,1.39573 -16.96635,-1.17335 -25.73451,-2.80739c-8.62468,-1.6073 -16.62076,2.65074 -24.76831,4.03034c-11.1706,-0.01291 -19.19255,-6.89894 -30.00983,-8.70828c-20.39704,-3.41169 -40.04562,12.01979 -47.60056,-14.26638c-1.31628,-15.16615 3.6226,-46.11307 16.82824,-55.2768c6.00999,-4.17048 15.57103,-4.01719 22.45977,-6.32107c17.53991,-5.82142 37.87764,-6.96506 56.25906,-5.88997c3.54041,0.20707 25.88659,0.86358 25.51397,-1.47348c8.4722,-31.06819 -3.75081,-63.86267 0.38141,-95.10577c0.5519,-4.16947 0.16034,-11.71528 1.75914,-15.46505c7.43882,-17.4467 64.59665,-12.79898 80.73976,-10.1369c4.98815,0.4988 10.03401,1.11147 14.976,1.95834c2.07816,0.35612 3.93048,1.55459 5.96897,2.09323c1.75184,0.4629 3.62352,-0.06688 5.43548,-0.06688h2.00329c0,0 2.5,0 2.5,2.5z" fill="#000000"/><path d="M324.86524,138.29119c0,-1.38071 1.11929,-2.5 2.5,-2.5c1.38071,0 2.5,1.11929 2.5,2.5c0,1.38071 -1.11929,2.5 -2.5,2.5c-1.38071,0 -2.5,-1.11929 -2.5,-2.5z" fill="#000000"/><path d="M406.33226,110.24517c0,-1.38071 1.11929,-2.5 2.5,-2.5c1.38071,0 2.5,1.11929 2.5,2.5c0,1.38071 -1.11929,2.5 -2.5,2.5c-1.38071,0 -2.5,-1.11929 -2.5,-2.5z" fill="#000000"/><path d="M370.95486,138.00135c-0.27618,-0.30982 -1.53523,-1.89551 0.05046,-3.48121c1.76777,-1.76777 3.53553,0 3.53553,0l1.4,2.43553c-0.00015,4.49833 0.40352,8.73891 -1.93447,12.89632c-1.99097,3.54034 -4.74264,4.76399 -7.44014,7.5294c-0.98391,1.00868 -5.95561,7.80296 -6.24691,7.94882c-1.36846,0.6852 -3.10057,-0.1699 -4.53855,-0.69374c-3.04807,-1.11039 -5.38008,-3.77245 -7.87511,-5.64473c-2.53211,-1.9001 -5.2701,-3.50912 -7.90416,-5.26516c0,0 -2.08013,-1.38675 -0.69338,-3.46688c1.38675,-2.08013 3.46688,-0.69338 3.46688,-0.69338c4.12912,2.75274 7.95008,5.65296 11.92337,8.59079c0.95045,0.70276 2.02665,1.21846 3.01443,1.86771c0.28646,0.18828 0.56877,0.89155 0.80355,0.64178c1.84264,-1.96031 2.56861,-4.80644 4.43729,-6.74195c1.791,-1.85506 5.32621,-4.16536 6.70854,-6.54811c1.66405,-2.86834 1.36816,-6.20189 1.29268,-9.37519z" fill="#000000"/></g></g></svg>